<svg xmlns="http://www.w3.org/2000/svg" height="800" width="1200" viewBox="-59.3724 -35.50025 514.5608 213.0015"><path d="M0 0v75.28C0 109.047 40.968 142 55.183 142c13.147 0 55.184-32.953 55.184-66.722V0H0" fill="#231f20"/><path d="M1.211 1.564v73.62c0 33.025 40.068 65.254 53.972 65.254 12.858 0 53.97-32.229 53.97-65.254V1.564H1.21" fill="#fff"/><path d="M1.211 1.564h107.941v36.59H93.988v7.723h-14.6v-7.752h-17.3v7.752H47.366v-7.752h-17v7.752h-14.74v-7.764H1.211V1.563" fill="#e01932"/><path d="M94.439 46.47H78.938v-7.752H62.54v7.752H46.915v-7.752H30.82v7.752H15.176v-7.764H1.21v-.9h14.866v7.76h13.84v-7.752h17.902v7.752H61.64v-7.752h18.202v7.752h13.693v-7.722h15.617v.904H94.44v7.722" fill="#231f20"/><path d="M13.947 7.925l-.445.102c-1.4.802-.767 6.627 3.413 13.922 3.62 6.314 7.848 10.086 9.844 10.086l.445-.102c.528-.304.952-1.641.406-4.416-.55-2.79-1.907-6.168-3.82-9.506-3.62-6.314-7.847-10.086-9.843-10.086m12.812 26.22c-3.652 0-8.495-5.599-11.673-11.146-3.926-6.85-6.09-14.82-2.631-16.802a2.953 2.953 0 011.492-.381c3.652 0 8.495 5.597 11.672 11.144 2.026 3.536 3.468 7.14 4.061 10.151.854 4.336-.307 6.007-1.429 6.651a2.953 2.953 0 01-1.492.382" fill="#fff"/><path d="M20.07 16.077c-8.23 0-13.5 2.292-13.512 3.87-.002.609.94 1.65 3.611 2.572 2.688.931 6.293 1.456 10.142 1.48l.292.003c8.23 0 13.5-2.292 13.508-3.87.006-.609-.94-1.647-3.607-2.572-2.692-.931-6.293-1.456-10.142-1.48zm.533 10.032h-.307c-4.076-.024-7.916-.594-10.816-1.597-4.172-1.44-5.037-3.285-5.031-4.58.03-3.915 7.88-5.965 15.62-5.965l.308.003c4.073.027 7.913.594 10.816 1.597 4.172 1.444 5.037 3.288 5.03 4.58-.029 3.918-7.88 5.962-15.62 5.962" fill="#fff"/><path d="M26.884 7.871c-1.999 0-6.227 3.775-9.843 10.086-1.913 3.339-3.274 6.72-3.82 9.51-.546 2.774-.122 4.108.406 4.412l.445.105c1.996 0 6.224-3.775 9.84-10.089 4.184-7.295 4.816-13.117 3.414-13.922l-.442-.102M14.072 34.093c-.552 0-1.05-.128-1.495-.384-1.122-.642-2.28-2.319-1.426-6.648.59-3.014 2.035-6.616 4.058-10.155 3.18-5.546 8.023-11.144 11.675-11.144.55 0 1.05.128 1.492.382 3.459 1.981 1.295 9.954-2.631 16.802-3.181 5.547-8.02 11.147-11.673 11.147" fill="#fff"/><path d="M13.982 34.443c-.411 0-.826-.063-1.22-.221-1.143-.454-1.898-1.57-2.244-3.315-.015-.105-.316-2.211.72-5.867l.095-.337 2.837.567-.12.397c-.005.02-.653 2.2-.694 3.512-.051.698.003 1.916.388 2.31l.277.11.036-.003.036.006h.009c.092 0 .94-.033 2.622-1.337.018-.015 2.489-2.04 4.088-4.368.036-.05 2.51-3.288 3.733-6.013.042-.074 2.405-4.267 2.984-8.781.131-.85.146-2.333-.367-2.751-.066-.057-.266-.218-.803-.018-.047.015-2.852.937-6.439 5.893-.02.03-2.235 3.142-3.712 6.048l-.674-.34c1.504-2.96 3.75-6.117 3.774-6.147 3.757-5.195 6.687-6.131 6.81-6.17.758-.28 1.247-.078 1.521.149 1.012.823.678 3.175.636 3.44-.597 4.655-2.957 8.841-3.059 9.018-1.24 2.774-3.69 5.976-3.795 6.113-1.647 2.402-4.12 4.431-4.225 4.515-1.904 1.474-2.924 1.522-3.169 1.498a1.067 1.067 0 01-.826-.34c-.74-.764-.612-2.659-.594-2.87.03-1.057.415-2.579.608-3.292l-1.345-.271c-.88 3.297-.612 5.182-.609 5.197.29 1.465.89 2.393 1.778 2.746 1.788.71 4.24-1.027 4.264-1.048 2.766-1.79 6.177-6.609 6.21-6.66 3.288-4.425 5.35-10.84 5.37-10.906.708-2.354.8-4.267.8-4.285.09-1.784-.274-3.064-1.08-3.8-.925-.845-2.124-.69-2.133-.687-5.276.677-11.372 11.738-11.434 11.849l-.66-.361c.257-.466 6.344-11.51 11.992-12.234.06-.01 1.564-.203 2.742.877.98.895 1.427 2.372 1.325 4.39-.003.08-.095 2.02-.832 4.472-.024.075-2.122 6.61-5.479 11.127-.137.194-3.52 4.983-6.397 6.842-.08.057-1.9 1.346-3.745 1.346" fill="#231f20"/><path d="M24.551 20.2c-1.94-4.04-4.458-6.892-4.482-6.919l.561-.501c.108.12 2.611 2.954 4.598 7.095l-.677.326m1.169-2.396c-1.748-3.259-4.236-6.138-4.26-6.165l.567-.495c.027.03 2.572 2.972 4.356 6.302l-.662.358m-10.631 6.06l-1.898-3.655C8.059 8.778 11.264 6.469 11.706 6.218c3.774-2.843 8.724 3.08 8.936 3.333l-.582.478c-.047-.054-4.714-5.643-7.922-3.196l-.065.042c-.027.015-3.205 1.865 1.796 13.01l1.889 3.634-.669.346" fill="#231f20"/><path d="M17.861 24.265C10.93 14.123 12.511 8.838 12.58 8.617c.34-.755.856-.97 1.232-1.03 1.996-.294 5.109 3.16 5.455 3.558l-.564.498c-.875-.99-3.435-3.497-4.78-3.31-.18.03-.442.117-.642.556.003.012-1.489 5.159 5.204 14.952l-.624.424m8.988 10.318c-1.788 0-4.055-1.349-6.765-4.028l.531-.535c3.754 3.712 5.864 4.059 6.98 3.697 1.527-.498 1.88-2.542 1.882-2.566.925-3.18-2.527-10.882-2.563-10.956l.687-.31c.146.328 3.601 8.032 2.61 11.43-.003.057-.411 2.471-2.38 3.116a3.117 3.117 0 01-.982.152" fill="#231f20"/><path d="M26.634 32.387c-1.2.003-2.927-1.146-5.153-3.42l.537-.528c3.413 3.488 4.664 3.267 4.968 3.124.49-.245.653-1.2.45-2.623-.549-3.846-1.775-6.137-1.787-6.161l.663-.361c.05.098 1.304 2.437 1.87 6.415.263 1.844-.026 2.993-.862 3.404l-.686.15M18.73 28.95c-.502-.463-1.925-2.564-2.083-2.803l.624-.423c.611.91 1.638 2.366 1.969 2.667l-.51.558m-6.09-5.762l-.74-.152c.065-.325.996-2.494 1.28-3.148l.692.299c-.57 1.316-1.185 2.799-1.232 3.001" fill="#231f20"/><path d="M25.404 24.065l-.083-.75 1.056-.119.084.75-1.057.119m-1.364 2.363c-.384 0-.44-.075-.512-.167l.593-.463-.19-.122c.247.036 1.79-.17 3.144-.379l.117.743c-1.83.29-2.707.388-3.151.388m-3.115.06c-1.242 0-7.684-.081-11.724-1.665-2.154-.848-4.789-2.298-5.1-4.413-.193-1.331.565-2.674 2.254-3.999.092-.065 1.996-1.411 5.087-2.02l.143.74c-2.918.576-4.762 1.868-4.78 1.88-1.447 1.137-2.11 2.244-1.957 3.288.2 1.376 1.844 2.73 4.628 3.822 4.258 1.671 11.568 1.612 11.64 1.612l.009.755h-.2" fill="#231f20"/><path d="M20.71 24.435c-5.49 0-12.257-1.388-14.125-3.572-.471-.549-.438-1.05-.328-1.37.603-1.78 5.365-2.837 5.902-2.954l.158.74c-1.88.397-4.995 1.418-5.347 2.456-.044.131-.071.334.188.639 1.752 2.05 9.396 3.658 15.439 3.246l.05.752c-.617.039-1.268.063-1.936.063m-6.559-7.529l-.125-.742c.886-.15 1.417-.215 1.567-.197l-.093.749h-.003c-.116 0-.79.098-1.346.19m-.71-2.106l-.113-.743c.11-.021 2.712-.424 3.727-.433l.006.755c-.961.01-3.593.418-3.62.42" fill="#231f20"/><path d="M14.746 23.659l-.692-.295.418-.985.692.292-.418.988m7.86-7.102c-.469-.134-2.94-.113-4.393-.068l-.02-.755c.393-.012 3.884-.11 4.619.101l-.206.722m-2.981-2.175l-.015-.752 1.507-.036.015.755-1.507.033m7.435.579c-1.54-.403-3.12-.379-3.16-.403l-.002-.752c.074-.006 1.715 0 3.35.424l-.187.731m-.675 2.014l-1.28-.268.155-.74 1.28.271-.155.737m2.211 6.597l-.164-.734c3.688-.83 4.735-1.948 4.744-1.954l.04-.039c.524-.444.453-.734.429-.83-.257-1.065-3.336-2.157-5.216-2.598l.17-.734c.546.128 5.332 1.3 5.78 3.154.09.379.05.957-.66 1.566-.182.194-1.405 1.337-5.123 2.17" fill="#231f20"/><path d="M29.445 25.65l-.132-.74c.069-.016 6.786-1.245 6.502-4.748-.286-3.557-6.576-4.76-6.639-4.768l.134-.743c.284.053 6.923 1.319 7.257 5.451.337 4.184-6.818 5.493-7.122 5.547" fill="#231f20"/><path d="M13.744 11.876a1.955 1.955 0 11-3.913-.002 1.955 1.955 0 013.913.002" fill="#fff"/><path d="M11.79 10.297a1.58 1.58 0 100 3.16 1.58 1.58 0 100-3.16m0 3.91a2.332 2.332 0 11-.003-4.666 2.332 2.332 0 01.002 4.665" fill="#231f20"/><path d="M22.433 20.15c0 1.08-.878 1.954-1.958 1.954a1.956 1.956 0 110-3.911c1.08 0 1.958.877 1.958 1.957" fill="#fff"/><path d="M20.475 18.565a1.582 1.582 0 000 3.163c.871 0 1.582-.71 1.582-1.581s-.71-1.582-1.582-1.582m0 3.915a2.335 2.335 0 01-2.333-2.333 2.337 2.337 0 012.333-2.333 2.337 2.337 0 012.334 2.333 2.335 2.335 0 01-2.334 2.333" fill="#231f20"/><path d="M19.016 31.533a1.957 1.957 0 11-3.913.002 1.957 1.957 0 013.913-.002" fill="#fff"/><path d="M17.059 29.955a1.58 1.58 0 100 3.158 1.58 1.58 0 000-3.158m0 3.915a2.337 2.337 0 01-2.334-2.337 2.334 2.334 0 014.667 0 2.335 2.335 0 01-2.333 2.337" fill="#231f20"/><path d="M34.681 23.02a1.955 1.955 0 11-3.913-.002 1.955 1.955 0 013.913.002" fill="#fff"/><path d="M32.724 21.436c-.868 0-1.579.707-1.579 1.578 0 .872.71 1.582 1.579 1.582.871 0 1.581-.71 1.581-1.582 0-.87-.71-1.578-1.581-1.578m0 3.912a2.335 2.335 0 01-2.334-2.334 2.339 2.339 0 012.334-2.333 2.333 2.333 0 110 4.667" fill="#231f20"/><path d="M83.225 7.99l-.444.102c-.528.302-.952 1.641-.406 4.413.55 2.79 1.907 6.168 3.82 9.507 3.619 6.317 7.844 10.088 9.843 10.088l.445-.104c.528-.305.952-1.638.405-4.413-.549-2.79-1.906-6.17-3.819-9.51-3.62-6.31-7.847-10.082-9.844-10.082M96.038 34.21c-3.652 0-8.492-5.6-11.673-11.148-2.026-3.533-3.467-7.14-4.06-10.15-.851-4.333.307-6.007 1.429-6.652.441-.25.942-.379 1.491-.379 3.653 0 8.495 5.595 11.673 11.142 2.026 3.539 3.468 7.14 4.061 10.154.85 4.332-.307 6.006-1.429 6.648a2.925 2.925 0 01-1.492.385" fill="#fff"/><path d="M89.348 16.14c-8.23 0-13.499 2.291-13.508 3.867-.006.611.937 1.65 3.61 2.575 2.69.928 6.29 1.453 10.14 1.48h.295c8.23 0 13.496-2.289 13.508-3.87.01-1.615-5.34-3.999-13.752-4.052zm.537 10.031h-.31c-4.076-.027-7.916-.593-10.816-1.596-4.172-1.441-5.037-3.285-5.028-4.58.024-3.918 7.874-5.965 15.617-5.965h.308c7.895.054 15.87 2.193 15.847 6.177-.027 3.917-7.877 5.964-15.618 5.964" fill="#fff"/><path d="M96.163 7.934c-1.999 0-6.227 3.775-9.846 10.085-4.178 7.296-4.81 13.117-3.41 13.923l.44.102c2 0 6.228-3.775 9.845-10.086 4.183-7.295 4.812-13.117 3.413-13.922l-.442-.102m-12.815 26.22a2.96 2.96 0 01-1.492-.383c-3.458-1.981-1.292-9.95 2.632-16.802 3.18-5.547 8.023-11.145 11.675-11.145.546 0 1.05.129 1.492.382 3.456 1.982 1.292 9.955-2.631 16.802-3.181 5.547-8.021 11.145-11.676 11.145" fill="#fff"/><path d="M83.264 34.502c-.412 0-.826-.062-1.22-.218-1.143-.456-1.898-1.57-2.244-3.318-.015-.104-.316-2.208.72-5.866l.095-.337 2.837.57-.12.394c-.005.024-.653 2.202-.694 3.515-.054.695.006 1.912.388 2.31l.277.11.036-.003.036.006c.018 0 .853.038 2.634-1.337.018-.015 2.486-2.041 4.085-4.372.036-.047 2.51-3.285 3.733-6.009.042-.075 2.405-4.27 2.984-8.781.131-.854.146-2.337-.367-2.755-.066-.053-.269-.214-.803-.017-.047.014-2.855.94-6.439 5.896-.02.027-2.235 3.139-3.712 6.048l-.671-.34c1.5-2.96 3.75-6.117 3.771-6.147 3.757-5.195 6.687-6.135 6.81-6.17.754-.281 1.247-.078 1.521.146 1.012.826.678 3.177.636 3.443-.6 4.655-2.957 8.841-3.059 9.014-1.244 2.775-3.694 5.98-3.795 6.117-1.647 2.402-4.12 4.428-4.225 4.515-1.904 1.474-2.933 1.521-3.166 1.498a1.036 1.036 0 01-.827-.338c-.743-.77-.614-2.661-.596-2.873.03-1.06.414-2.578.608-3.294l-1.345-.269c-.88 3.294-.612 5.183-.609 5.198.29 1.465.89 2.39 1.778 2.742 1.785.71 4.24-1.026 4.264-1.044 2.766-1.793 6.177-6.612 6.21-6.663 3.288-4.422 5.35-10.837 5.37-10.903.708-2.36.797-4.27.797-4.288.09-1.784-.274-3.061-1.08-3.801-.922-.845-2.121-.687-2.13-.684-5.279.678-11.369 11.739-11.431 11.85l-.663-.362c.257-.468 6.34-11.508 11.992-12.236.06-.006 1.56-.203 2.742.88.98.895 1.424 2.369 1.325 4.386-.003.084-.095 2.023-.832 4.476-.021.071-2.122 6.606-5.482 11.127-.134.193-3.518 4.983-6.394 6.841-.08.057-1.9 1.343-3.745 1.343" fill="#231f20"/><path d="M93.833 20.263c-1.942-4.04-4.458-6.89-4.482-6.916l.564-.502c.105.117 2.608 2.954 4.595 7.093l-.677.325m1.17-2.399c-1.749-3.252-4.237-6.134-4.264-6.161l.57-.496c.027.027 2.569 2.972 4.356 6.302l-.662.355m-10.632 6.063l-1.9-3.655c-5.133-11.434-1.928-13.74-1.486-13.991 3.777-2.847 8.727 3.076 8.936 3.333l-.582.477c-.044-.053-4.717-5.642-7.919-3.195l-.068.041c-.024.015-3.205 1.862 1.796 13.01l1.892 3.634-.669.346" fill="#231f20"/><path d="M87.14 24.327c-6.93-10.142-5.35-15.43-5.28-15.647.34-.755.856-.97 1.232-1.03 1.993-.289 5.109 3.16 5.458 3.557l-.567.499c-.875-.988-3.423-3.5-4.78-3.31-.18.03-.439.114-.642.556.003.008-1.489 5.156 5.204 14.949l-.624.426m8.989 10.318c-1.787 0-4.057-1.348-6.764-4.028l.531-.534c3.754 3.712 5.867 4.058 6.98 3.694 1.536-.501 1.88-2.542 1.882-2.563.922-3.184-2.53-10.882-2.566-10.957l.69-.31c.146.328 3.601 8.033 2.61 11.428-.006.06-.411 2.474-2.38 3.118-.311.099-.64.152-.982.152" fill="#231f20"/><path d="M95.916 32.452c-1.2 0-2.927-1.145-5.156-3.425l.537-.522c3.413 3.485 4.667 3.267 4.968 3.12.492-.24.656-1.199.453-2.619-.549-3.837-1.775-6.14-1.787-6.162l.66-.36c.053.098 1.303 2.437 1.873 6.415.263 1.844-.026 2.986-.865 3.401l-.683.152m-7.907-3.443c-.502-.46-1.925-2.56-2.083-2.799l.623-.424c.612.907 1.639 2.367 1.97 2.671l-.51.552m-6.09-5.759l-.737-.15c.065-.327.996-2.494 1.28-3.144l.689.295c-.567 1.316-1.185 2.8-1.232 3" fill="#231f20"/><path d="M94.686 24.127l-.086-.746 1.056-.119.087.749-1.057.116m-1.366 2.367c-.385 0-.442-.075-.513-.17l.593-.46-.19-.125c.25.038 1.793-.167 3.144-.376l.117.743c-1.83.29-2.707.388-3.151.388m-3.115.056c-1.239 0-7.68-.08-11.724-1.668-2.154-.844-4.786-2.294-5.096-4.41-.194-1.33.56-2.676 2.25-4.001.092-.066 1.996-1.412 5.087-2.017l.146.74c-2.933.576-4.762 1.868-4.78 1.88-1.45 1.136-2.11 2.243-1.96 3.288.203 1.372 1.847 2.73 4.628 3.822 4.258 1.668 11.574 1.611 11.646 1.608l.006.755-.203.003" fill="#231f20"/><path d="M89.99 24.497c-5.49 0-12.258-1.387-14.126-3.568-.471-.55-.438-1.05-.328-1.37.603-1.781 5.365-2.84 5.905-2.957l.155.74c-1.88.397-4.995 1.417-5.347 2.456-.045.131-.071.337.188.641 1.752 2.047 9.4 3.653 15.439 3.247l.05.749c-.617.042-1.268.062-1.936.062m-6.556-7.527l-.125-.747c.886-.146 1.414-.215 1.564-.194l-.09.746c-.101.006-.79.102-1.349.194m-.713-2.109l-.116-.743c.11-.018 2.715-.424 3.73-.43l.006.755c-.961.006-3.593.415-3.62.418" fill="#231f20"/><path d="M84.028 23.722l-.692-.296.415-.987.695.295-.418.988m7.857-7.102c-.469-.134-2.94-.116-4.39-.072l-.024-.754c.397-.012 3.888-.108 4.62.101l-.206.725m-2.981-2.172l-.015-.755 1.507-.033.018.755-1.51.033m7.436.572c-1.525-.396-3.11-.4-3.157-.4h-.003l-.003-.754c.077-.009 1.718 0 3.35.424l-.188.73m-.674 2.02l-1.277-.27.152-.738 1.283.272-.158.737m2.215 6.597l-.168-.734c3.691-.83 4.738-1.948 4.747-1.957l.04-.036c.521-.448.453-.734.429-.83-.26-1.065-3.336-2.16-5.219-2.599l.17-.734c.546.129 5.332 1.298 5.78 3.154.092.38.05.958-.657 1.567-.185.194-1.405 1.337-5.123 2.169" fill="#231f20"/><path d="M98.727 25.712l-.132-.743c.066-.012 6.786-1.241 6.502-4.747-.286-3.554-6.58-4.757-6.642-4.769l.137-.74c.28.051 6.923 1.32 7.257 5.452.337 4.183-6.818 5.49-7.122 5.547" fill="#231f20"/><path d="M83.026 11.938a1.959 1.959 0 01-3.915 0c0-1.08.877-1.954 1.957-1.954s1.958.874 1.958 1.954" fill="#fff"/><path d="M81.068 10.36c-.871 0-1.581.707-1.581 1.578 0 .872.71 1.582 1.581 1.582s1.579-.71 1.579-1.582a1.58 1.58 0 00-1.579-1.578m0 3.915a2.335 2.335 0 010-4.67 2.339 2.339 0 012.334 2.333 2.337 2.337 0 01-2.334 2.337" fill="#231f20"/><path d="M91.715 20.21a1.957 1.957 0 11-3.915 0 1.957 1.957 0 013.915 0" fill="#fff"/><path d="M89.757 18.631c-.871 0-1.581.71-1.581 1.579 0 .874.71 1.584 1.581 1.584.868 0 1.579-.71 1.579-1.584 0-.869-.71-1.579-1.579-1.579m0 3.915a2.334 2.334 0 112.333-2.336 2.337 2.337 0 01-2.333 2.336" fill="#231f20"/><path d="M88.295 31.599a1.959 1.959 0 01-3.915 0 1.959 1.959 0 013.915 0" fill="#fff"/><path d="M86.338 30.018c-.872 0-1.582.707-1.582 1.578 0 .871.71 1.581 1.582 1.581a1.58 1.58 0 000-3.16m0 3.915a2.335 2.335 0 010-4.67 2.337 2.337 0 012.333 2.334 2.337 2.337 0 01-2.333 2.336" fill="#231f20"/><path d="M103.96 23.08c0 1.08-.877 1.954-1.957 1.954a1.956 1.956 0 01-1.958-1.954c0-1.08.878-1.954 1.958-1.954s1.957.874 1.957 1.954" fill="#fff"/><path d="M102.003 21.499a1.582 1.582 0 000 3.162c.871 0 1.581-.71 1.581-1.58 0-.872-.71-1.582-1.581-1.582m0 3.914a2.337 2.337 0 01-2.334-2.333 2.337 2.337 0 012.334-2.333 2.337 2.337 0 012.333 2.333 2.337 2.337 0 01-2.333 2.333" fill="#231f20"/><path d="M53.64 8.325v-2.73s.111-.85 1.117-1.227c1.002-.376 2.103.663 2.133 1.209.033.549 0 2.84 0 2.84s3.139.442 5.21 2.343l2.01-2.011s1.335-.928 2.245.28c0 0 1.083 1.116-.25 2.405-1.335 1.286-1.71 1.677-1.71 1.677s1.912 2.859 2.052 5.183l3.142.075s1.788.596.988 2.437c0 0-.328.722-1.6.815h-2.512s-.504 3.282-2.07 5.117l2.163 2.178s.504.988.065 1.615c-.441.626-1.477 1.423-2.616.522l-1.895-1.946s-1.958 1.74-5.168 2.352v2.703s-.367 1.34-1.656 1.358c0 0-1.349.012-1.647-1.262v-2.713s-2.844-.155-5.532-2.115l-1.758 1.727s-1.256.809-2.187-.292c-.931-1.098-.072-2.134-.072-2.134l1.62-1.572s-1.945-2.414-2.387-5.523l-2.524-.05s-1.554-.404-1.146-2.212c0 0 .391-.973 1.412-1.08l2.258.015s.475-3.315 2.358-5.604l-1.758-1.808s-.737-1.474.72-2.289c0 0 .975-.677 2.183.58l1.272 1.238s2.354-1.836 5.54-2.101" fill="#e6ab39"/><path d="M54.017 34.21c.238.916 1.211.937 1.268.937.877-.015 1.211-.839 1.28-1.042v-2.957l.304-.06c3.076-.584 4.971-2.246 4.992-2.264l.269-.239 2.145 2.205c.236.182.51.29.785.29.528 0 .993-.397 1.253-.764.233-.337.048-.92-.066-1.176l-2.366-2.384.224-.262c1.483-1.737 1.981-4.903 1.987-4.93l.048-.322h2.835c.978-.072 1.253-.579 1.262-.603.194-.444.22-.841.077-1.166-.194-.442-.653-.666-.802-.728l-3.42-.084-.02-.343c-.135-2.2-1.976-4.968-1.994-4.995l-.167-.254.209-.218c.015-.017.397-.411 1.722-1.691.36-.347.546-.702.549-1.054a1.253 1.253 0 00-.308-.811c-.268-.355-.555-.51-.898-.51-.394 0-.743.202-.838.259l-2.235 2.235-.266-.245c-1.957-1.793-4.98-2.238-5.01-2.24l-.328-.048.003-.335c0-.017.033-2.282 0-2.81-.012-.23-.618-.934-1.31-.934l-.316.053c-.77.293-.871.916-.871.922l.003 3.03-.347.026c-3.04.257-5.317 2.008-5.34 2.026l-.26.203-1.507-1.468c-.415-.43-.842-.66-1.238-.66a.89.89 0 00-.472.123c-1.038.582-.713 1.533-.614 1.76l1.948 2-.215.262c-1.796 2.187-2.268 5.386-2.274 5.419l-.047.325-2.587-.021c-.669.075-.99.695-1.05.823-.27 1.269.62 1.648.844 1.725l2.796.05.044.317c.421 2.966 2.29 5.32 2.307 5.344l.215.269L44.352 29c-.036.05-.597.8.098 1.62.254.305.55.448.901.448.362 0 .672-.158.77-.21l1.952-1.92.256.19c2.56 1.862 5.306 2.041 5.33 2.044l.358.018zm1.268 1.689c-.612 0-1.725-.329-2.011-1.555l-.012-.086v-2.37a11.969 11.969 0 01-5.115-1.969l-1.593 1.558c-.024.012-.546.343-1.203.343-.572 0-1.08-.245-1.474-.71a2.015 2.015 0 01-.077-2.617l1.411-1.37c-.504-.704-1.781-2.661-2.208-5.117l-2.3-.05c-.66-.177-1.803-.956-1.418-2.665l.018-.054c.021-.05.49-1.188 1.722-1.319l1.984.012c.164-.871.725-3.288 2.172-5.198l-1.596-1.665c-.31-.624-.528-2.005.874-2.787.006-.006.343-.23.866-.23.423 0 1.074.15 1.772.875l1.038 1.011c.687-.471 2.62-1.653 5.127-1.951v-2.39c.009-.093.158-1.128 1.36-1.579l.58-.104c1.014 0 2.022.925 2.061 1.644.027.436.012 1.892.006 2.545.838.164 3.082.707 4.813 2.143l1.814-1.806c.021-.015.59-.405 1.29-.405.581 0 1.088.265 1.467.772v-.003a2 2 0 01.493 1.316c-.012.558-.272 1.095-.782 1.585-.803.775-1.26 1.226-1.492 1.459.453.73 1.68 2.84 1.918 4.762l2.916.09c.038.011.925.316 1.295 1.145.235.531.209 1.134-.08 1.797-.019.041-.44.93-1.92 1.038l-2.223.003c-.16.841-.692 3.133-1.882 4.711l1.996 2.041c.027.048.6 1.194.036 2-.367.525-1.05 1.086-1.868 1.086-.448 0-.88-.161-1.29-.487l-1.691-1.73c-.636.486-2.316 1.62-4.762 2.151l-.012 2.495c-.152.555-.77 1.617-2.011 1.635h-.01" fill="#231f20"/><path d="M64.093 19.989c0 5.045-4.115 9.136-9.19 9.136-5.076 0-9.19-4.09-9.19-9.136 0-5.043 4.114-9.134 9.19-9.134 5.075 0 9.19 4.091 9.19 9.134" fill="#fff"/><path d="M54.903 11.231c-4.858 0-8.814 3.93-8.814 8.758 0 4.834 3.956 8.76 8.814 8.76 4.86 0 8.814-3.926 8.814-8.76 0-4.828-3.954-8.758-8.814-8.758m0 18.273c-5.276 0-9.566-4.267-9.566-9.515 0-5.243 4.29-9.51 9.566-9.51 5.275 0 9.569 4.267 9.569 9.51 0 5.248-4.294 9.515-9.57 9.515" fill="#231f20"/><path d="M61.369 19.944a6.398 6.398 0 01-6.4 6.397 6.4 6.4 0 116.4-6.397" fill="#e6ab39"/><path d="M54.971 13.917a6.032 6.032 0 00-6.024 6.021 6.03 6.03 0 006.024 6.024 6.03 6.03 0 006.022-6.024 6.031 6.031 0 00-6.022-6.021m0 12.797a6.783 6.783 0 01-6.776-6.776c0-3.733 3.04-6.773 6.776-6.773 3.736 0 6.777 3.04 6.777 6.773a6.783 6.783 0 01-6.777 6.776" fill="#231f20"/><path d="M58.415 19.905c0 1.973-1.6 3.575-3.572 3.575a3.575 3.575 0 010-7.15 3.575 3.575 0 013.572 3.575" fill="#fff"/><path d="M54.843 16.707a3.202 3.202 0 00-3.199 3.195 3.203 3.203 0 003.2 3.199 3.202 3.202 0 003.195-3.199 3.201 3.201 0 00-3.196-3.195m0 7.143a3.95 3.95 0 01-3.95-3.948 3.953 3.953 0 013.95-3.947 3.955 3.955 0 013.95 3.947 3.953 3.953 0 01-3.95 3.948" fill="#231f20"/><path d="M45.823 18.906l2.852-.129s.135-1.706 1.818-3.41l-2.334-1.48s-1.754 1.596-2.336 5.019" fill="#638e8c"/><path d="M48.219 14.373c-.427.484-1.45 1.838-1.937 4.133l2.071-.093c.117-.56.475-1.74 1.555-2.972zM45.372 19.3l.08-.46c.598-3.509 2.38-5.162 2.454-5.23l.212-.192 2.974 1.877-.328.334c-1.557 1.576-1.71 3.157-1.71 3.175l-.03.331-3.652.165" fill="#231f20"/><path d="M52.125 14.21l-1.194-2.418s2.73-1.614 6.15-.686l-.653 2.605s-2.316-.65-4.303.498" fill="#638e8c"/><path d="M51.433 11.96l.859 1.736c.758-.361 1.62-.546 2.572-.546.537 0 .99.062 1.286.113l.474-1.88a7.791 7.791 0 00-1.706-.188 8.45 8.45 0 00-3.485.764m.53 2.778l-1.527-3.094.304-.176c.069-.045 1.764-1.027 4.178-1.027.767 0 1.527.102 2.261.302l.356.095-.833 3.34-.373-.102a6 6 0 00-1.465-.17c-.97 0-1.826.212-2.551.63l-.35.202" fill="#231f20"/><path d="M50.496 15.367l-2.337-1.477s1.271-1.495 2.772-2.1l1.194 2.416s-1.146.624-1.63 1.16" fill="#0c3c5d"/><path d="M48.744 13.815l1.7 1.074c.368-.325.866-.641 1.186-.832l-.878-1.775c-.853.43-1.611 1.127-2.008 1.533m1.817 2.041l-2.972-1.88.28-.33c.058-.064 1.35-1.57 2.92-2.206l.324-.131 1.507 3.055-.316.176c-.304.164-1.17.68-1.528 1.077l-.215.24m-1.542 1.721l-2.525-1.047.29-.693 2.521 1.045-.286.695M53.91 13.6l-.159-2.724.752-.045.158 2.722-.752.047m4.64 1.05l-.62-.423 1.518-2.223.62.427-1.518 2.22m-12.541 7.221l-.116-.743 2.62-.415.119.743-2.623.415" fill="#231f20"/><path d="M19.72 26.109l.74 1.014" fill="#fff"/><path d="M20.156 27.344l-.74-1.012.609-.444.74 1.014-.61.442m69.274-.057l-.633-.9.62-.43.63.895-.617.435" fill="#231f20"/><path d="M62.532 102.722c.618 1.25.842 2.557-.372 3.643-1.937 1.728-7.087 3.903-7.087 3.903s-2.626.898-2.211 2.453c.415 1.557 1.011 1.16 1.011 1.16l1.83.69 1.462.453s.555.308 1.435-.086c.877-.397 1.053.098 1.053.098l.32.164s.572.454 1.378.102c.803-.355 1.474-1.319 1.745-1.773.272-.45.946-1.226 1.31-.465.367.76.135 1.74.135 1.74s1.462-.821 1.345-2.238c0 0 1.286 1.742.642 3.246 0 0 3.288-2.67 2.026-5.54l1.313 3.365s.841-1.928 1.16-2.572c.323-.645.421-2.525-.247-3.438l-.272-.373s.684-.543.493-1.286c-.188-.74-2.352-3.515-2.25-5.114 0 0-.233-2.927 1.563-4.094l-1.453-5.791-5.696-.893-3.691.63s-1.572 3.664-1.235 5.105c.307 1.32 1.211 2.384 2.02 3.435.832 1.077 1.668 2.256 2.273 3.476" fill="#e5ae4a" fill-rule="evenodd"/><path d="M59.922 114.75l.29.152a.91.91 0 00.527.155l.463-.104c.602-.263 1.208-1.006 1.572-1.618.137-.226.63-.97 1.238-.97.18 0 .514.072.737.532.165.346.224.722.24 1.053.295-.325.57-.785.521-1.358l-.107-1.315.785 1.062c.044.06.83 1.137.895 2.387.779-.898 1.775-2.447 1.23-4.05l-.108-.268.698-.29.12.314.865 2.22c.271-.606.62-1.387.805-1.757.275-.552.35-2.274-.215-3.044l-.483-.665.28-.221c.004-.006.49-.412.365-.904-.051-.194-.347-.692-.636-1.179-.713-1.2-1.689-2.84-1.63-4.025-.02-.316-.14-2.96 1.514-4.252l-1.328-5.3-5.392-.85-3.425.588c-.46 1.12-1.376 3.658-1.137 4.679.26 1.119 1.002 2.07 1.721 2.996l.23.298c.728.943 1.647 2.196 2.313 3.536.85 1.719.7 3.055-.46 4.09-1.957 1.752-6.976 3.886-7.188 3.975-.048.018-2.31.83-1.996 2.008.23.86.471.925.474.925l.161-.11.147.086 1.829.687 1.513.477.381.069.717-.167c.274-.126.525-.185.743-.185.376 0 .608.173.73.343m5.664 2.315l.6-1.4c.29-.676.116-1.422-.117-1.986-.408.919-1.292 1.423-1.342 1.453l-.746.417.194-.835c.003-.006.197-.862-.102-1.489l-.077-.113c-.078.009-.356.247-.573.611-.266.445-.982 1.513-1.922 1.922l-.76.167a1.71 1.71 0 01-.962-.292l-.426-.212-.054-.143-.107-.006-.436.119a2.464 2.464 0 01-1.024.236c-.36 0-.605-.093-.704-.14l-1.435-.445-1.719-.645-.173.021c-.534 0-.937-.498-1.2-1.483-.5-1.877 2.331-2.867 2.454-2.909.026-.012 5.09-2.163 6.955-3.828.898-.8.985-1.788.29-3.196-.64-1.283-1.531-2.497-2.236-3.414l-.23-.295c-.77-.988-1.563-2.008-1.861-3.285-.355-1.519 1.092-4.95 1.259-5.335l.08-.188 3.951-.678.063.01 5.944.933 1.578 6.293-.227.146c-1.584 1.03-1.393 3.721-1.393 3.751l.003.024v.027c-.063.955.892 2.56 1.522 3.622.408.687.644 1.095.716 1.373.16.623-.132 1.128-.367 1.417l.086.114c.794 1.092.63 3.127.28 3.825-.313.63-1.145 2.536-1.154 2.557l-.364.836-.764-1.952c-.498 1.934-2.217 3.357-2.315 3.434l-1.185.961" fill="#231f20"/><path d="M58.537 94.89s5.058.044 6.51 2.592l-.011.701c.003.648.039 1.298.098 1.943.09.877.23 1.751.445 2.608.113.46.242.925.42 1.37.129.319.424.647.466.987.096.764-2.408 2.07-2.96 2.414-2.133 1.334-4.347 2.536-6.564 3.72l.432.32c.391.182 4.324.501 4.366.054.307-.845 1.748.122 2.39.033.641-.08 6.693-4.837 6.582-5.267-.385-1.533-1.566-2.733-1.999-4.308-.2-.729-.286-1.55-.164-2.292.048-.284.994-2.984 1.179-2.826 0 0-.135-.113-.618-2.435-.483-2.33-.552-2.029-.552-2.029s-4.416-2.19-7.806-1.092c0 0-1.68 1.277-1.754 1.683-.078.4-.46 1.823-.46 1.823" fill="#c08532" fill-rule="evenodd"/><path d="M55.905 78.94s5.297 1.033 8.463-.253c3.162-1.283 4.559-.868 4.559-.868l5.436.725s1.376.42 8.275 1.196c0 0 8.853.782 11.165-.662 0 0 5.29-1.677 4.15-7.161 0 0-1.992-5.001-8.98-4.39-6.992.606-6.789 5.443-5.652 6.505 1.14 1.054 2.154 1.987 2.154 1.987s-.73-.45-2.405-.584c-1.674-.138-2.578-.212-3.56-1.54-.981-1.328-.614-1.945-.614-1.945s-.943 2.312-5.58 3.813c0 0-1.364.337-2.67.588 0 0 1.882-.937 2.208-3.957 0 0-.887.155-1.579.96-.69.813-2.644 3.065-5.818 1.988-.114.063-.203-.02-.323-.104-.098-.069-.214-.14-.382-.123 0 0 .925-.423 1.788-.66.632-.17 1.402-.799 1.635-1.42.382-1.008-1.868-.64-2.319-.578-.593.08-1.181.194-1.769.307-.764.15-1.53.11-2.318.066-1.665-.102-3.429-.361-4.909-1.167-2.78-1.519-4.675-3.56-4.207-6.88.468-3.325 5.66-5.38 6.206-5.509.546-.128 2.19-.528 9.06-.782 0 0 2.39.427 4.902-2.187 2.515-2.614 5.878-2.417 5.878-2.417s3.658-.244 5.252-3.733c0 0 .176 3.145-1.146 4.608l3.685-2.116c.471-.275 2.787-1.519 5.95-.275 3.162 1.245 5.203 1.272 5.95.048 0 0-.648 1.943-5.08 2.489 0 0-2.29-.197-4.48 2.491-.574.707-1.353.961-2.075 1.444.531.15 1.107.042 1.644.24a5.332 5.332 0 011.486.835c.526.411 1.424 1.122 1.656 1.763 0 0-.617-1.716-5.451.295-4.828 2.018-6.421 1.809-9.608.746-3.187-1.065-4.306-2.587-7.269-2.434 0 0-7.02-.946-12.398 1.942 0 0-4.007 2.465-.298 6.048 0 0 2.59 2.787 10.432 1.52 7.841-1.269 11.7-3.065 13.49-3.214 1.793-.147 8.292-2.29 13.418-1.22 5.13 1.073 6.946 5.501 6.946 5.501s1.292 2.665.173 4.954c-1.119 2.291-2.01 3.282-2.01 3.282s3.234 1.689 2.133 5.54c0 0-.04-1.613-2.167-1.795-2.127-.185-3.706-1.14-3.78-1.322 0 0-2.536 1.05-7.343 1.357 0 0 1.053 1.307 3.339 2.211 0 0-5.556 1.764-7.206-.919 0 0-.469 1.465 1.492 1.937 0 0-2.871 1.247-4.975-1.003 0 0 .833 2.074.875 5.544.041 3.47.125 5.288 2.578 6.768 2.455 1.486 3.768 1.316 3.768 1.316s.552 1.775-.265 2.792c0 0 .42.645 3.046.776 2.689.134 2.056 3.626 3.891 3.957 0 0-.483.53-2.14-.487-1.661-1.017-2.7.245-2.7.245s2.262.552 2.307 2.847c.05 2.297.376 3.216.376 3.216s-.57-.382-1.376-1.36c-.808-.98-2.27-.755-2.27-.755s1.512.778 1.295 3.148c0 0-.15 1.244.39 1.587 0 0-1.515-.388-2.175-1.465 0 0-1.283 1.053-1.363 1.94-.08.886.107 3.514-1.91 3.83-2.017.311-1.67-.933-1.67-.933s-.258 1.235-3.003.301c0 0-2.235-.024-2.321-.898 0 0-1.596.555-1.743-.764-.149-1.319 1.555-1.53 1.895-1.683.34-.146 2.614-.972 2.751-3.84.14-2.864-.779-6.54-1.584-7.818-.809-1.28-2.587-2.226-4.87-2.837-2.28-.612-4.049-2.137-4.58-4.637-.531-2.495-.779-3.518-1.107-3.724-.325-.206-4.625-2.208-8.164-.943 0 0 1.46 1.012 1.925 1.734 0 0-.8-.722-2.805-.215-2.002.507-3.112-.275-3.112-.275s.238 1.674 1.73 2.283c0 0-.519.06-1.903.236-1.39.173-2.438-.176-2.692-.725 0 0 .845 2.399 2.2 2.987 0 0-1.197-.415-3.044-.651-1.847-.236-2.396-.63-2.593-1.217 0 0 .647 1.984 0 3.828 0 0-.236-1.787-1.71-2.143-1.474-.352-2.062-.665-2.336-.88l.468 2.047s.38.099-1.477 2.28c0 0 1.486 1.486 1.617 2.993.132 1.503.523 2.53 1.266 3.294 0 0-.893.239-1.877-.85-.982-1.093-1.507-1.18-1.483-.764.02.414 1.134 2.005.349 4.341 0 0-.612 1.376-.024 2.14 0 0-.806-.46-1.113-1.701-.304-1.248-1.2-1.265-1.2-1.265s.92 1.22.46 3.315c-.46 2.091-.394 2.42-.176 2.727 0 0-.72-.636-1.113-1.617-.39-.982-1.373-1.11-1.46-.502 0 0 .675 2.444-.393 4.058 0 0 .045-3.664-2.772-1.089 0 0-.328.415-.501 1.614-.173 1.2-.94.83-1.441 1.18-.502.348-.61.459-1.463.435-.85-.024-1.59-.305-1.59-.305s-.045.588-1.396.305c-1.355-.284-1.549-.173-1.549-.173s-.636-.045-.853-.546c-.218-.502-.785-.024-.982-.567-.197-.546-1.68-.391-1.635-1.245.042-.853.39-1.289 1.438-1.769 1.047-.477 2.533-1.047 3.294-1.79.764-.74 1.552-2.856 1.552-2.856s1.265-3.622 1.483-5.278c.218-1.662 1.002-8.388.656-9.57-.343-1.181-1.903-3.777-1.903-3.777l-3.748 1.96s-3.891 1.501-5.449.463c-1.554-1.036-1.844-1.817-2.22-1.817-.373 0-1.498.781-4.643.29 0 0-1.384-.377-2.073-.144 0 0 .835-.46 1.787-1.009.952-.549 1.498-1.859 1.498-1.859s-1.874.848-3.861-.42c-1.993-1.268-2.423-1.525-3.578-1.295 0 0 .128-.457 1.85-.824 1.722-.373 2.59-2.077 3.22-2.24 0 0-1.988-.2-3.432-.95-1.444-.751-2.038-1.187-2.685-1.136 0 0 .337-.594 1.832-.722 1.498-.129 2.506-1.084 2.429-2.146-.078-1.053-.877-2.521-.877-2.521s.05-.212-.752-.624c-.8-.415-1.263-.39-2.373-1.784 0 0-1.662-.114-1.751-1.274-.09-1.164 1.047-1.776 1.047-1.776l1.582.705c.268-.027-.272-1.128-1.146-1.764-.874-.641-.934-1.623-.442-1.889.49-.262.642-.546.642-.546s.832-.549 1.304.075c.471.623 1.116 1.91 1.286 2.062.17.149.018-1.134-.152-1.477-.17-.34-.907-1.797-.15-2.098.335-.134.529-.122.675-.113.185.015.292.026.513-.245 0 0 .832-.248.967.794.131 1.038.149 1.566.244 1.68 0 0-.038-1.662.32-1.85.2-.105.37 0 .522.101.125.087.239.17.349.143l.89-.319c.148-.113.793.358.715 1.34-.074.984-.376 2.55-.113 3.383.265.83.474 2.498 2.685 5.103 2.211 2.61 5.711 4.368 6.472 4.693.758.323 21.729-1.984 21.729-1.984l6.299-.268s1.411-.487 2.261-.015" fill="#e5ae4a" fill-rule="evenodd"/><path d="M53.023 112.342s1.489-.152.89 1.355c0 0-1.296.089-1.896.784 0 0-.358-1.074 1.006-2.14" fill="#85b3da" fill-rule="evenodd"/><path d="M53.115 112.59c-.644.525-.835 1.035-.88 1.378.528-.343 1.19-.462 1.495-.504l.006-.654-.62-.22m-1.2 2.387l-.14-.418c-.018-.05-.394-1.253 1.092-2.414l.056-.042.075-.009.131-.009c.272 0 .761.06 1.02.442.21.307.207.734-.005 1.262l-.06.15-.155.008c-.012.003-1.2.093-1.725.695l-.289.335" fill="#231f20"/><path d="M55.401 114.69s.528-1.82-1.128-1.083c0 0-.979.886-.376 1.772 0 0 .585-1.098 1.504-.689" fill="#85b3da" fill-rule="evenodd"/><path d="M54.413 113.819c-.113.113-.519.555-.453 1.05.26-.283.719-.6 1.25-.498l-.063-.609-.211-.08-.523.137m-.492 2.05l-.233-.346c-.576-.845.021-1.743.415-2.104l.066-.042c.301-.131.549-.197.767-.197.33 0 .516.152.611.284.329.432.12 1.208.096 1.295l-.08.277-.263-.12-.305-.065c-.516 0-.874.642-.88.65l-.194.368" fill="#231f20"/><path d="M57.242 114.923s.105-1.835-1.381-.52c0 0-.403.43-.12 1.499 0 0 .687-.627 1.501-.98" fill="#85b3da" fill-rule="evenodd"/><path d="M56.028 114.595c.003 0-.188.253-.12.847.257-.2.645-.468 1.08-.68l-.149-.537-.104-.045c-.09 0-.301.057-.707.415m-.424 1.775l-.107-.4c-.308-1.172.128-1.683.179-1.733.695-.618 1.208-.699 1.53-.355.32.334.29.984.287 1.056l-.01.155-.142.06c-.767.334-1.424.93-1.43.937l-.307.28" fill="#231f20"/><path d="M60.2 115.072s-.078-1.581-1.412-.773c0 0-.684 1.009-.12 1.949 0 0 .329-1.131 1.531-1.176" fill="#85b3da" fill-rule="evenodd"/><path d="M58.97 114.487c-.087.146-.331.612-.26 1.134a1.89 1.89 0 011.203-.77c-.051-.224-.173-.53-.457-.53l-.486.166m-.221 2.375l-.292-.486c-.642-1.062.092-2.17.125-2.214l.074-.078c.299-.176.558-.268.8-.268.74 0 .976.817.997 1.244l.012.254-.257.012c-1 .035-1.286.952-1.298.99l-.161.546" fill="#231f20"/><path d="M70.141 58.35s-3.354.736.036 1.822c0 0 1.104.257 2.456.92 1.351.662 3.434 1.36 4.353 1.617.92.26 2.993 1.148 5.956.179 2.963-.967 3.867-1.331 4.154-1.42.283-.087 2.45-1.042 3.798-.016l.412.245s-.41-.934-1.856-1.692c-1.447-.764-1.91-1.071-2.823-1.11 0 0 1.188-.606 2.014-1.486.827-.883 1.7-1.981 2.492-2.282.787-.308 1.354-.367 2.393-.415 1.032-.045 2.995-.627 4.24-1.788 0 0-.263.057-2.468.153-2.19.098-3.888-1.086-5.075-1.08-1.188.005-2.06-.4-5.518 1.805l-1.769.883s.686-.713.833-1.874c.149-1.158.179-2.656.179-2.656s-.576 1.97-2.868 3.154c0 0-1.372.663-2.444.657-1.077 0-2.73.555-3.12.728-.395.176-1.52.585-2.555 1.668-1.035 1.083-2.453 1.853-2.82 1.987m-1.966 13.693l16.802-3.566s-3.545 1.543-1.954 5.43l1.891 1.887s.2-.233-2.688-.436c0 0-2.865.143-3.61-3.121 0 0-.744 1.274-3.244 2.521-.564.284-1.194.606-1.934.845-4.04 1.307-2.139.364-2.139.364s.946-.496 1.495-2.202c0 0 .367-1.092.334-1.453 0 0-1.33.05-2.268 1.19 0 0-.587.576-1.766 1.134-1.179.56-1.817 1.143-4.058.54l2.005-.695s1.987-1.552 1.134-2.438m27.15 9.363s3.085-1.659 3.443-2.118c0 0 3.384 1.4 2.328 5.356 0 0 .068-1.149-1.45-1.811-1.457-.63-1.155.435-4.321-1.427m-8.122 1.319l-7.818-.11s.48 2.28 2.778 3.613c0 0 1.588.576 3.268-.116 0 0-1.409.397-1.716-1.94 0 0 .74 1.862 7.43.922 0 0-2.364-.743-3.942-2.369M46.229 94.042s11.547-3.59 14.158-2.81l1.662 1.396s-1.184-.06-2.497-.003c-1.227.053-3.193.003-3.453-.191 0 0 .663 1.503 2.02 2.255 0 0-.877-.065-2.121.21-1.247.274-2.265-.293-2.468-.633 0 0 1.045 1.68 1.782 2.736 0 0-3.402-.561-4.029-.856-.63-.293-1.154-.427-1.315-.857 0 0 .441 1.85.28 2.894l-.155 1.03s-.376-1.913-1.301-2.223c-.925-.304-2.16-.555-2.563-.922 0 0-.6-1.56 0-2.026m-1.322 6.663s-4.631 5.899-7.105 13.848l-.146.322s1.409-1.1 1.984.284c0 0 .353 1.217.251 1.53 0 0 .865-1.292.287-4.23 0 0 .408-.982 1.41.03 0 0 .517 1.801 1.272 2.26 0 0-.164-1.193.05-2.965.278-2.31-.587-3.16-.587-3.16s1.25-.134 1.653 1.534c0 0 .266 1.098.776 1.316 0 0-.352-.466.08-2.188.43-1.71-.271-4.093-.271-4.093s.027-.636 1.035.13c.806.61 1.086 1.457 2.059 1.32 0 0-.886-.773-1.05-2.495-.167-1.718-.86-2.661-1.698-3.443m42.343.823l.63 11.67s.875 1.188 2.352 1.504c0 0-.737-.257-.645-1.662.093-1.402-.033-2.396-1.041-3.076 0 0 1.316-.618 2.44.752 0 0 .397.608 1.224 1.154 0 0-.46-.632-.579-2.855-.116-2.223-1.71-2.689-2.423-2.927 0 0 1.373-1.403 2.921-.543 1.543.859 1.823.934 2.223.716 0 0-1.095.071-1.533-1.465-.44-1.546-1.355-2.435-3.402-2.39 0 0-1.79-.373-2.166-.878m-16.886 5.789s-4.022 4.031-6.027 5.025c0 0-.033-.072.197.853.23.92.241 1.227.241 1.227s1.212-.445 1.11-1.856c0 0 1.483 1.086.913 2.712 0 0 2.614-1.91 1.695-4.822 0 0 .504.39 1.453 2.68l.946-2.29s.385-1.783-.528-3.529M12.747 77.9l8.51 14.247s-.155-.644-1.432-.155c0 0-1.901.373-3.453.033-1.551-.34-1.766-.128-1.766-.128l1.927-1.018s1.069-1.54 1.113-2.083c0 0-2.136 1.107-3.643.197-1.507-.916-2.739-2.133-3.724-1.623 0 0-.068-.283 1.063-.468 1.133-.191 2.396-.985 2.85-1.561.453-.579.82-.982.82-.982s-1.609-.36-2.298-.707c0 0-1.026-.355-1.942-.889-.92-.537-1.283-.504-1.609-.522 0 0 .618-.418 1.686-.594 1.068-.173 1.794-.245 2.42-1.462 0 0 .134-1.003-.522-2.286" fill="#162c53" fill-rule="evenodd"/><path d="M83.193 52.071s-.71 1.656-3.64 2.28c-2.93.62-4.142-.093-8.048 4.112 0 0 3.557-2.623 6.096-2.811 2.81-.206 4.881-1.925 5.592-3.58" fill="#5e85a9" fill-rule="evenodd"/><path d="M91.443 52.62c-1.283-.477-2.736-.36-4.031.093-1.292.456-2.45 1.229-3.539 2.064-.743.57-1.37.803-2.277.973-.952.176-1.915.325-2.885.385-1.949.122-4.515.886-6.994 2.802 2.933-1.065 6.06-2.056 9.172-2.378 1.262-.128 2.4-.093 3.488-.854.701-.489 1.203-1.187 1.9-1.691 1.475-1.075 3.349-1.6 5.166-1.394m-2.268 7.845s-2.891.483-6.4 2.01c-1.253.547-4.783 1.09-8.209-1.375 0 0 2.453 1.519 6.44.782 3.986-.743 4.451-1.972 8.17-1.417" fill="#5e85a9" fill-rule="evenodd"/><path d="M94.82 54.055s-4.102-1.208-8.766 2.922c0 0 2.008-3.187 4.383-3.486 2.379-.292 3.205-.202 3.205-.202s-3.231-.839-5.818.411c-2.584 1.25-2.37 3.19-7.645 3.277 0 0-4.694.68-7.973 2.127a33.245 33.245 0 012.814-.4c1.578-.164 3.369-.36 4.93.021.885.22 1.682.206 2.604.23.967.018 1.949-.164 2.874-.445 1.032-.307 2.142-.707 2.89-1.533.702-.78 1.197-1.567 2.173-2.065.516-.266 1.08-.433 1.647-.558.394-.09.797-.15 1.197-.197.412-.045 1.092-.218 1.486-.102m-12.458 7.066s-4.619 1.534-8.065-.465c0 0-1.638-1.042-3.088-.713 0 0 .9-.651 2.977-.544 2.08.11 4.02 2.023 8.176 1.722" fill="#5e85a9" fill-rule="evenodd"/><path d="M74.817 59.071a33.51 33.51 0 012.187-.098c.862-.012 1.752-.072 2.596.146.69.176 1.2.552 1.925.627 1.208.122 3.89-.215 3.953-.24-1.56.58-3.27 1.123-4.953.91a4.428 4.428 0 01-1.202-.321c-.329-.144-.597-.38-.907-.534-.326-.159-.74-.197-1.09-.251-.83-.125-1.67-.185-2.509-.239" fill="#5e85a9" fill-rule="evenodd"/><path d="M82.092 82.96h-1.937s.6 1.975 2.137 2.733c0 0-1.17-1.253-1.069-1.993 0 0 1.37 1.96 2.378 2.31 0 0-1.566-1.487-1.51-3.05m1.507-.346h.884s.713 1.566 2.363 1.865c0 0-2.22.355-3.247-1.865m1.997 0h.94s.85 1.7 2.28 1.889c0 0-1.684.25-3.22-1.89m10.479-1.709s.74-.173.94-.456c0 0 1.736 1.71 2.706 1.793 0 0-2.733-.454-3.646-1.337m1.674-1.056l.832-.236s1.803 2.235 1.785 3.127c0 0-1.445-2.026-2.617-2.891M70.27 71.687l1.363-.239s-1.5 2.578-3.924 2.924c0 0 2.483-1.64 2.56-2.685m4.354-.83l1.46-.322s-.538 2.319-2.922 4.043c0 0 1.778-2.766 1.462-3.72m2.167-.487s-.174 2.844-2.76 4.079c0 0 3.854-1.638 3.911-4.255l-1.152.176m6.445-1.405s-1.94 2.494-.796 4.458c0 0-1.128-.693-.69-2.91 0 0-1.984 2.083.696 3.593 0 0-2.095-.066-2.223-3.142 0 0-1.268 2.408 1.808 3.742 0 0-3.652-.672-2.506-5.013l3.711-.728" fill="#5e85a9"/><path d="M44.277 101.513s1.567.027 1.779 1.55c0 0-.424-.798-1.638-.774 0 0 1.56.29 1.81 2.43 0 0-.608-1.6-1.95-1.35 0 0 1.68.23 1.95 2.06 0 0-.787-2.385-3.66-.902l1.71-3.014" fill="#5e85a9" fill-rule="evenodd"/><path d="M42.248 105.034s1.803-.814 2.152 2.09c0 0-.669-1.63-1.567-1.362 0 0 1.62.89 1.713 2.97 0 0-.236-1.931-1.978-1.848 0 0 1.68.442 1.581 2.402 0 0-.379-2.387-3.53-1.28l1.63-2.972" fill="#5e85a9" fill-rule="evenodd"/><path d="M40.318 108.678s2.569-.669 2.264 2.778c0 0-.477-1.862-1.712-1.886 0 0 1.712.868 1.429 2.861 0 0-.215-1.799-2.274-1.65 0 0 1.86.41 2.08 1.89 0 0-.28-1.388-2.775-1.26l.988-2.733m-1.2 3.404s1.086.55.967 1.99c0 0-.373-1.351-1.307-1.306l.34-.684" fill="#5e85a9" fill-rule="evenodd"/><path d="M38.644 113.079s.981-.161 1.277 1.402c0 0-.55-1.214-1.576-.707l.299-.695" fill="#5e85a9" fill-rule="evenodd"/><path d="M38.226 114.072s1.071-.268 1.414.478c0 0-.954-.51-1.548-.146l.134-.332m26.112-1.733l1-.552s.098.68-.2 1.51c0 0 .03-.552-.8-.958m2.554-1.839l.49-.402s.894 1.611.527 3.067c0 0-.208-1.796-1.017-2.664m-.815.469l.618-.407s.892 1.853.361 3.068c0 0-.107-1.811-.979-2.662m2.116-1.545l.71-.531s1.188 1.19 1.122 2.297c0 0-.609-1.405-1.832-1.766m1.002-.818l.68-.462s.496 1.318.362 2.178c0 0-.117-1.14-1.042-1.716m18.155-6.2l.11 3.488s3.043-2.017 4.365-.785c0 0-.346-1.316-3.142-1.244 0 0 2.1-.436 2.96.09 0 0-1.134-1.147-4.294-1.55m.241 3.781v2.912s2.522-.274 3.337 1.009c0 0-.036-1.283-2.211-1.576 0 0 1.65-.716 2.485 1.107 0 0-.409-1.978-2.464-2.792 0 0 1.629.232 2.56 1.59 0 0-.173-2.193-3.706-2.25m.062 3.796v1.417s.702 1.026 1.11 1.647l-.814-1.898s1.241 1.609 1.26 2.265c0 0-.084-2.617-1.556-3.431" fill="#5e85a9" fill-rule="evenodd"/><path d="M46.876 94.263l1.122-.254s-.12.982.862 1.925c.982.943.964 1.59.964 1.59s-.943-1.572-2.005-1.925c-1.062-.355-.943-1.336-.943-1.336m1.471-.394l.788-.215s.158 2.2.471 2.495c0 0-1.3-1.415-1.259-2.28m1.259-.373l.893-.269s.486 2.698 2.461 2.922c0 0-2.148.104-3.354-2.653" fill="#5e85a9"/><path d="M50.57 93.036l1.57-.4s.134 1.671.549 2.265c0 0-.973-.984-1.06-1.551 0 0 .478 1.876 1.06 2.244 0 0-1.462-.83-2.119-2.558m2.9-.71l1.854-.462s.023 1.77 1.17 2.312c0 0-1.218-.39-1.854-1.486 0 0-.53 1.095 1.51 1.802 0 0-1.948.245-2.68-2.166m4.566-.999l1.098-.194s.582.752 1.241.73c0 0-1.414.072-2.145-.172 0 0 .805.438 1.608.513 0 0-1.182.32-3.41-.537l1.608-.34m-39.253-3.509l2.3 3.407s-1.029.892-2.76.62c0 0 1.218-.107 1.597-1.187 0 0-1.596 1.057-3.679 1.03 0 0 2.515-.71 3.11-1.83 0 0-1.28 1.003-2.892 1.367 0 0 2.217-1.355 2.324-3.407m-1.498-2.653l1.206 2.22s-1.552 2.348-4.59.988c0 0 2.779.298 3.405-1.394 0 0-2.372 1.784-4.741.427 0 0 3.512.28 4.72-2.241m-.37-.91l.323.522-3.3 1.59s1.73-1.59 2.977-2.112m-3.252-5.258s.02 2.695-2.67 2.93c0 0 1.721.305 3.685-1.16 0 0-1.143 2.172-3.45 1.593 0 0 1.465 1.056 4.3-.107 0 0-.594 1.402-3.569.907 0 0 2.307 1.25 4.506.322l-2.802-4.485" fill="#5e85a9"/><path d="M45.796 96.772c-.158-.456-.638-2.002-.298-2.673l.411-.35c.102-.03 10.554-3.094 15.027-3.094h.122l-.008.752c-4.169-.065-14.222 2.859-14.887 3.056-.11.232.048 1.193.346 2.067l-.713.242m18.288 16.292l-.486-.573c.068-.057 6.603-5.544 6.97-5.872l.504.558c-.376.34-6.72 5.663-6.988 5.887m23.525.615c-1.02-8.657-.696-12.043-.684-12.183l.65.068c-.002.03-.327 3.47.681 12.037l-.647.078m-7.17-27.831c-.051-.104-1.263-2.539-1.469-3.157l-.11-.334.355.006c.096.003 9.766.215 10.984.036l.077.495c-1.134.17-8.856.021-10.694-.018.38.88 1.295 2.725 1.304 2.745l-.447.227" fill="#231f20"/><path d="M94.967 81.623s3.81-1.913 4.09-2.61" fill="#e5ae4a" fill-rule="evenodd"/><path d="M95.137 81.963l-.337-.674c1.736-.871 3.727-2.041 3.909-2.414l.698.28c-.299.752-3.088 2.215-4.27 2.808M20.92 92.32c-.69-1.354-8.716-14.994-8.8-15.13l.65-.386c.332.564 8.123 13.798 8.821 15.176l-.671.34" fill="#231f20"/><path d="M70.577 80.63c.734.36 1.829.441 2.438.772a9.407 9.407 0 012.276 1.719c2.012 2.053 2.934 4.879 3.142 7.695.684 9.16 6.428 9.16 6.428 9.16s-4.446-1.545-4.38-6.295c.035-2.47-.013-5.004-.687-7.397-.904-3.22-2.891-5.207-6.11-6.075-.977-.263-2.024-.555-3.044-.52-.445.016-.934.01-.648.46l.585.48" fill="#c98e37" fill-rule="evenodd"/><path d="M82.784 118.626l-.08-.158-.06-.466.194-.653.208-.314.263-.286.582-.424.534-.298c.325-.161.573-.227.573-.227s-.125.224-.364.498c-.221.275-.609.61-.922.887l-.436.45-.301.45c-.152.287-.191.54-.191.54m-2.659-.277s-.16-.226-.152-.632l.143-.666.412-.656.555-.49.52-.349c.313-.188.557-.277.557-.277s-.107.236-.328.531l-.394.483-.462.496a3.832 3.832 0 00-.669.996c-.137.305-.182.564-.182.564m-2.7-.265l-.075-.123-.074-.379.125-.53.355-.502.457-.346.423-.23.469-.164-.25.43-.311.37-.37.367-.567.686-.182.42m-18.897-2.879l-.086-.176-.048-.522.239-.713.238-.343.299-.307.653-.469.6-.331c.361-.182.632-.26.632-.26s-.152.239-.426.534c-.263.296-.698.657-1.065.97l-.499.501-.343.508a1.843 1.843 0 00-.194.608m-2.808-.316s-.113-.245-.032-.633l.256-.608.516-.552.618-.361.561-.233c.334-.122.585-.155.585-.155l-.409.447-.462.391-.529.388c-.346.25-.632.546-.82.815l-.284.501m-1.665-.635l-.05-.138-.003-.382.226-.498.442-.424.516-.253.463-.147c.277-.068.49-.068.49-.068l-.33.37-.375.307-.433.287a3.523 3.523 0 00-.689.567l-.257.379m-24.658 4.308l-.048-.203.054-.555.373-.71.304-.328.367-.278.77-.39.69-.263c.411-.14.71-.182.71-.182s-.203.224-.55.483l-.605.424-.69.427-.611.462-.448.496c-.233.325-.316.617-.316.617m-2.137-1.083l-.05-.137v-.382l.223-.501.445-.421.513-.254.463-.146c.277-.072.49-.072.49-.072l-.33.373-.375.308-.433.286a3.314 3.314 0 00-.686.567l-.26.379M10.99 68.95l.325.263.507.666.328.758.075.277.033.113-.12-.032-.268-.155a2.248 2.248 0 01-.564-.666 2.56 2.56 0 01-.293-.803l-.023-.42m2.673-1.391l.206.361c.098.218.182.514.227.809.041.298.041.597.02.826l-.03.287-.011.113-.099-.071-.19-.245a2.29 2.29 0 01-.281-.827 2.596 2.596 0 01.027-.856l.131-.397"/><path d="M86.12 100.32c0 2.342.015 4.679.071 7.027.027 1.1.057 2.205.129 3.306.036.549-.01 1.304.235 1.814l.051.075s-1.008 2.68-.901 3.363c0 0-.797-1.015-1.435-.985-.636.027-3.136-.218-3.136-.218l.501-1.922s2.542.221 3.226-.238c.683-.46.334-9.477.137-10.697.555-.406.982-.842 1.122-1.525" fill="#c98e37" fill-rule="evenodd"/><path d="M78.323 101.513c-.838-.414-1.698-.793-2.551-1.178-.886-.397-1.886-.624-2.698-1.173-1.44-.97-2.315-2.557-2.792-4.192l-.445-2.596c.02-.003.039-.006.063-.006h.071c1.02.066 2.551 2.799 2.551 2.799.063 2.978 5.801 6.346 5.801 6.346" fill="#d39a3e"/><path d="M45.322 94.901l.99 3.548s-4.887 5.344-8.993 16.47c0 0-.934.568-1.071 2.558 0 0-.01.316-.72.448 0 0-.447.056-.865.423l-.343.144s-.444-.77-.746-.83c0 0 1.794-.844 2.008-1.757 0 0-.435-.484-2.536.617 0 0-.895.6-1.071 1.062 0 0 2.447-3.83 4.655-5.499 0 0 3.5-9.712 6.633-13.32l2.059-3.864m33.684-12.52s10.04.233 11.291-.06c.928-.214 7.809-1.017 9.423-5.021 0 0-1.128 4.795-20.714 5.081" fill="#c98e37" fill-rule="evenodd"/><path d="M30.4 91.9l-1.874.927c-1.233.51-2.575.914-3.921.884a4.43 4.43 0 01-1.46-.269c-.629-.242-1.065-.56-1.405-1.152-.167-.286-.334-.57-.498-.862-.531-.919-1.06-1.835-1.59-2.757-.645-1.116-1.29-2.235-1.934-3.354a2700.9 2700.9 0 01-2.73-4.735l-.075-.129s-1.653-3.395-3.073-4.165c-1.42-.776-2.44-2.572-2.44-2.572s1.915 1.471 2.953 1.522c0 0-.462-1.668-1.892-4.046 0 0 2.608 2.214 3.614 4.813 0 0 7.946 13.039 9.867 13.675 1.925.632 3.706-2.66 3.706-2.66L30.4 91.9" fill="#c98e37"/><path d="M64.845 86.451l.4.137.209.078.23.137.534.379.546.537.522.669c.349.48.632 1.038.898 1.599.254.57.468 1.149.641 1.707.168.552.299 1.077.382 1.53.096.454.132.842.17 1.11l.033.418-.53-1.432c-.162-.427-.353-.922-.553-1.46-.212-.521-.43-1.085-.686-1.625-.123-.272-.245-.552-.385-.81l-.412-.754-.43-.677-.435-.567-.415-.436-.182-.179-.188-.122-.349-.239" fill="#231f20"/><path d="M68.175 91.568s-4.273-3.342-22.212 2.274c0 0-1.104-1.68-.065-4.7l1.351.693s.096 2.369 2.357 1.686c2.265-.684 11.438-5.992 14.233-4.804 2.8 1.187 4.336 4.851 4.336 4.851" fill="#c98e37" fill-rule="evenodd"/><path d="M45.698 95.516s-.135-.161-.23-.436l-.114-.486-.003-.573.153-.558.268-.445.278-.238.122-.063-.027.134-.068.326c-.045.26-.093.581-.132.919-.044.337-.086.68-.137.951-.048.272-.11.469-.11.469" fill="#231f20"/><path d="M69.407 81.211s-6.033-1.387-3.685 3.468c.072.146-1.6-3.363 3.685-3.468m-15.265-.904s4.983.6 6.49 0c0 0-5.174 1.409-6.49 1.603-1.313.19-2.241-.38-2.241-.38l2.24-1.223m-18.036 21.791l1.581-.567s-3.42 10.906-4.243 11.769c0 0-1.638.928-1.963.728 0 0 3.819-5.13 4.625-11.93M15.528 71.77s1.456 3.778 2.659 4.891c0 0-1.997-1.847-2.66-3.264V71.77" fill="#efc283" fill-rule="evenodd"/><path d="M99.013 79.144l-.039.33.272-.122zm-16.265 38.84l.734.164.05.344c.144.179.589.238 1.194.14 1.34-.206 1.51-1.68 1.567-3.047l.024-.444c.095-1.015 1.357-2.077 1.5-2.196l.338-.275.224.37c.22.355.578.671 1.07.94l.049.024.002.003a3.115 3.115 0 01-.035-.925c.194-2.068-1.042-2.757-1.095-2.784l-.708-.382.743-.301c.036-.015.38-.147.836-.147a2.01 2.01 0 011.6.75c.253.31.495.554.7.742a32.651 32.651 0 01-.098-2.085c-.042-1.97-1.943-2.471-2.02-2.492l-.579-.146.376-.46c.027-.032.653-.778 1.722-.778.48 0 .972.152 1.465.453l.686.367c-.239-.346-.412-.755-.582-1.158-.418-.987-.814-1.918-2.068-1.98-2.616-.132-3.222-.756-3.345-.947l-.152-.227.17-.214c.248-.31.523-1.325.367-1.907l-.211-.298-.326-.051-.364-.048c-.886-.203-1.796-.6-2.864-1.247-2.698-1.623-2.724-3.799-2.763-7.087-.042-3.348-.842-5.392-.848-5.412l-.74-1.856 1.364 1.459c1.149 1.229 2.533 1.435 3.45 1.408l-.377-.462c-.468-.791-.235-1.68-.226-1.716l.23-.842.456.743c.531.869 1.623 1.31 3.24 1.31.922 0 1.841-.149 2.51-.295-1.671-.86-2.462-1.823-2.5-1.871l-.457-.567.728-.048c4.672-.301 7.194-1.319 7.22-1.33l.565-.236-.027.37.238.116c.373.134.791.25 1.194.361.28.075.522.135.764.188.871.21 1.77.421 2.524.985l.439.4-.01-.057-.026-.269a7.632 7.632 0 00-.209-1.235c-.164-.612-.397-1.128-.69-1.54a2.559 2.559 0 00-.664-.665l-.23-.14.131-.32-.32-.286c.71-.79 1.236-1.793 1.746-2.763.976-1.868.55-3.79.021-5.075-.218-.535-.57-1.104-1.098-1.779-1.999-2.56-4.959-3.804-9.05-3.804-3.52 0-7.28.928-10.303 1.67-1.22.3-2.438.621-3.655.94-3.283.866-6.678 1.761-10.107 2.227-1.217.164-2.282.247-3.26.247-2.131 0-3.895-.382-5.402-1.154-1.03-.532-1.81-1.197-2.33-1.982-.758-1.154-.931-2.25-.507-3.258 1.062-2.521 5.529-3.637 7.403-3.998a22.49 22.49 0 014.284-.418c2.33 0 4.545.376 6.58 1.119.701.256 1.396.564 2.074.86 1.748.76 3.401 1.482 5.185 1.482h.114c1.48-.024 2.933-.582 4.335-1.119.391-.15.785-.298 1.179-.438l.594-.221c.614-.236 1.06-.41 1.91-.487.763-.074 1.54-.062 2.24.027-.778-.922-2.14-1.351-2.939-1.528-.22-.053-.53-.071-.83-.09l-.76-.068-1.555-.265 1.507-.463c.633-.197.79-.268 1.06-.414a7.27 7.27 0 00.9-.564c.332-.248.621-.538.925-.845.257-.256.52-.52.812-.76.782-.64 1.614-1.066 2.48-1.275l.692-.086.334-.03c2.193-.272 3.405-.892 4.058-1.415a9.018 9.018 0 01-1.865.191c-1.095 0-2.16-.2-3.157-.593a7.612 7.612 0 00-1.721-.454 6.608 6.608 0 00-2.25.08c-.806.177-1.441.433-2.149.764-.381.18-.868.454-1.268.71l-.498.37c-.188.15-.382.308-.716.493l-.269.155c-.33.206-.707.433-1.145.469l-1.982.167 1.782-.878c.528-.262.686-.743.904-1.405l.039-.116c.13-.397.241-.818.328-1.257-1.838 2.23-4.497 2.438-4.631 2.447l-.194-.003c-.755 0-3.38.167-5.437 2.304-.644.668-1.34 1.208-2.065 1.596-.808.43-1.54.528-2.342.606-.805.074-1.76.113-2.772.155-5.117.206-12.126.492-12.89 5.908-.388 2.772.85 4.777 4.016 6.499 1.814.988 4.115 1.134 5.687 1.158h.075c.725 0 1.414-.159 2.142-.323.728-.16 1.483-.33 2.277-.33h.116c.212.002.845.017 1.152.503.334.535.06 1.218-.698 1.746a15.96 15.96 0 01-1.7 1.035 6.04 6.04 0 003.434-.787c.456-.263.883-.61 1.333-.982.564-.463 1.146-.94 1.806-1.241l.498-.23.039.543c.053.856-.364 1.886-.546 2.292-.15.328-.484.677-.857.987.43-.09.815-.218 1.066-.301l.158-.054a12.784 12.784 0 003.816-1.99l.409-.298c.4-.287.814-.576 1.05-.943l.406-.63.266.698c.498 1.325 1.217 2.116 2.336 2.56.847.338 1.763.46 2.688.517-.65-.585-1.28-1.31-1.53-2.22-.323-1.161.032-2.525.928-3.554.713-.83 1.751-1.462 3.085-1.892 2.596-.835 5.595-.641 8.062.522 2.023.955 3.429 2.477 3.855 4.172.418 1.662-.098 3.586-1.345 5.027-1.063 1.227-2.62 2.125-4.5 2.596-1.235.308-2.584.445-4.38.445l-.731-.009a57.53 57.53 0 01-2.707-.101c-2.51-.15-5.18-.445-8.396-.925a227.95 227.95 0 01-4.169-.675 50.063 50.063 0 01-.835-.152c-.976-.179-1.984-.364-2.96-.364l-.734.039c-.928.101-1.919.379-3.13.868-1.098.445-2.545.674-4.303.674-2.294 0-4.285-.384-4.368-.4l-.11-.041c-.192-.105-.448-.158-.762-.158-.608 0-1.19.2-1.196.2l-.107.024-6.302.262c-.722.08-18.348 2.014-21.347 2.014-.334 0-.453-.02-.543-.056-1.03-.44-4.458-2.256-6.612-4.799-1.96-2.306-2.39-3.9-2.647-4.851l-.11-.382c-.224-.701-.096-1.773.012-2.721a17.4 17.4 0 00.086-.803c.04-.52-.167-.812-.28-.916-.334.167-.86.292-.865.292l-.126.015-.495-.197-.137-.086c-.09.218-.156.877-.14 1.498l.023 1.083-.692-.833c-.137-.164-.161-.4-.23-1.032-.027-.233-.056-.513-.098-.845-.066-.513-.302-.489-.397-.489-.224.23-.424.292-.725.272-.096-.006-.197-.042-.52.086l-.074.075c-.042.11-.086.48.418 1.495.137.274.397 1.506.188 1.847l-.11.179-.377.015-.134-.108c-.113-.101-.233-.301-.549-.847-.242-.424-.543-.952-.785-1.265l-.298-.15-.442.126c-.101.137-.319.379-.728.6l-.107.232c-.018.257.125.678.594 1.018.728.53 1.492 1.593 1.348 2.112l-.39.331-.051.003c-.293 0-.967-.328-1.549-.641-.262.194-.737.638-.686 1.307.063.817 1.387.928 1.4.928l.163.012.105.128c.826 1.035 1.247 1.223 1.778 1.46l.475.22c.226.12.859.442.946.856.167.32.811 1.6.883 2.602.095 1.31-1.095 2.405-2.77 2.548-.483.04-.826.129-1.062.23.508.191 1.248.502 2.053.916 1.364.707 3.28.907 3.298.91l.68.069-.418.534c-.066.084-1.6 2.03-3.45 2.378l-.674.188c.615.21 1.492.585 2.53 1.244.67.427 1.391.642 2.155.642.794 0 1.349-.239 1.355-.245l.871-.394-.37.884c-.024.06-.609 1.435-1.659 2.04l-.69.394.818.054c.702.114 1.331.164 1.901.164 1.155 0 1.83-.215 2.229-.343l.483-.107c.457 0 .833.438 1.134.796l.212.236c.62.567 1.173.976 1.862 1.116 1.185.233 2.566.015 4.13-.656.33-.144 3.664-1.904 3.873-2.032l.197.316.012-.006.322-.194c.167.275 1.6 2.688 1.942 3.864.424 1.45-.635 9.638-.644 9.721-.221 1.677-1.45 5.207-1.501 5.356-.039.099-.83 2.215-1.644 3.005-.678.66-1.814 1.158-2.817 1.603l-.585.26c-1.005.459-1.187.817-1.22 1.443-.006.158.125.245.644.421.385.125.824.272.973.674l.161.054c.212.012.612.033.809.495l.486.308c.28-.045.833.018 1.647.194l.57.065.376-.077.036-.46.471.18a4.91 4.91 0 001.468.28l.182.006c.526 0 .603-.06.982-.323l.075-.05.66-.245c.37-.08.54-.116.62-.68.185-1.262.54-1.746.582-1.79l.038-.048c.75-.684 1.379-1.015 1.922-1.015.328 0 .624.123.856.358l.391.639c.239-1.26-.107-2.551-.113-2.57l-.021-.074.012-.08c.06-.415.385-.693.812-.693.465 0 1.068.34 1.372 1.11.125.31.301.603.478.85.005-.456.03-1.065.086-1.852.143-1.988-.412-3.106-.418-3.118l-.286-.564.63.015c.047 0 1.187.047 1.557 1.551.093.382.236.675.385.898v-.447c-.006-.445.072-.857.146-1.256l.11-.669a4.68 4.68 0 00-.056-1.426 6.354 6.354 0 00-.316-1.06l-.057-.134-.17-.573.152-.462.4-.164c.143 0 .582 0 1.587 1.116.26.29.507.471.722.582-.423-.713-.665-1.594-.767-2.74-.116-1.351-1.491-2.739-1.503-2.757l-.245-.244.224-.263c1.089-1.283 1.342-1.772 1.4-1.921l-.711-3.119.835.657c.242.188.818.483 2.194.814.746.177 1.217.657 1.515 1.14a6.873 6.873 0 00-.253-2.348l-.684-2.107 1.343 1.764c.024.033.692.86 2.34 1.071a19.37 19.37 0 012.046.373l-2.41-3.276 1.315.597c.015.009 1.352.605 2.564.695.375.024.683.018.924-.003-.957-.818-1.14-2.023-1.148-2.083l-.066-.471 5.278.441-1.572-1.414.594-.209c.814-.292 1.727-.442 2.712-.442 2.859 0 5.484 1.23 5.783 1.418.444.274.65 1.047 1.274 3.965.465 2.184 1.996 3.73 4.309 4.348 2.52.677 4.278 1.715 5.09 3.001.892 1.415 1.784 5.15 1.644 8.036-.092 1.925-1.134 3.393-2.927 4.15l-.05.021-.314.099c-.895.254-1.432.54-1.358 1.193.033.287.135.546.663.546.304 0 .582-.092.585-.095l.45-.15.048.472c.03.302 1.071.546 1.948.552l.117.021c.644.22 1.19.331 1.626.331.77 0 .883-.346.889-.36m1.444 1.446c-.579.003-1-.16-1.25-.474l-.06-.084c-.235.132-.567.227-1.023.227-.504 0-1.113-.12-1.811-.352-.466-.012-1.994-.101-2.483-.826l-.48.05c-.812 0-1.325-.447-1.412-1.22-.16-1.42 1.286-1.83 1.904-2.002l.215-.066.06-.027c1.94-.811 2.41-2.345 2.467-3.488.143-2.93-.811-6.457-1.528-7.6-.71-1.122-2.315-2.047-4.648-2.673-2.602-.695-4.324-2.441-4.852-4.918-.328-1.545-.701-3.29-.94-3.488-.257-.16-2.736-1.298-5.38-1.298-.65 0-1.265.069-1.832.206l2.25 2.026-3.906-.298-2.581-.227c.176.475.564 1.182 1.367 1.51l.662.268-.597.397c-.056.036-.641.403-2.14.293a7.72 7.72 0 01-1.62-.317l2.176 2.954-1.143-.396c-.012-.003-1.188-.403-2.969-.63-.856-.11-1.5-.373-1.954-.636.11.788.149 1.907-.233 3l-.525 1.488-.206-1.566c0-.012-.224-1.534-1.423-1.823-.696-.168-1.26-.338-1.698-.52l.304 1.236c.078.256.042.671-1.36 2.354.447.507 1.378 1.713 1.488 2.966.123 1.423.484 2.366 1.161 3.067l.448.46-.62.167-.326.033c-.385 0-1.149-.132-1.928-1a5.9 5.9 0 00-.698-.668l.045.113c.17.445.286.82.355 1.185a5.55 5.55 0 01.066 1.656l-.12.722c-.071.379-.137.734-.134 1.107.003.298 0 .597-.006.892l-.015 1.101-.555-.313c-.039-.021-.955-.555-1.292-1.943l-.14-.39a8.5 8.5 0 01.137 2.377c-.14 1.97-.06 2.796-.06 2.805l.102.99-.731-.676c-.036-.033-.904-.839-1.322-1.89-.185-.462-.51-.635-.674-.635l-.045.006c.125.525.555 2.704-.472 4.252l-.704 1.065.012-1.277c.003-.277-.066-1.148-.406-1.492l-.322-.134c-.233 0-.66.14-1.381.79-.051.084-.278.496-.415 1.418-.155 1.086-.791 1.22-1.209 1.307l-.388.128-.071.048c-.49.346-.704.475-1.614.457a5.669 5.669 0 01-1.415-.23c-.158.158-.432.307-.919.307-.209 0-.453-.03-.725-.086-.904-.188-1.235-.191-1.34-.188l-.047.03-.11-.01c-.32-.02-.926-.208-1.17-.772l-.162-.039c-.208-.012-.644-.036-.83-.549l-.5-.22c-.475-.159-1.197-.398-1.158-1.173.05-1.003.486-1.55 1.659-2.09l.594-.265c.946-.414 2.017-.886 2.596-1.45.575-.558 1.25-2.154 1.459-2.718.009-.033 1.253-3.599 1.465-5.198.37-2.817.943-8.465.668-9.414-.262-.89-1.271-2.665-1.686-3.384-1.098.675-3.61 1.901-3.64 1.913-1.725.74-3.229.97-4.574.704-.913-.182-1.609-.734-2.223-1.298l-.278-.304-.567-.531-.25.074c-.412.132-1.185.376-2.456.376-.609 0-1.277-.056-1.987-.167l-3.315-.23 1.116-.617s.835-.46 1.784-1.006c.37-.212.69-.585.925-.934-.22.033-.474.057-.749.057-.91 0-1.77-.254-2.557-.755-1.883-1.2-3.19-1.393-3.202-1.393l-.814-.117.617-.543c.027-.02.621-.531 1.806-.758 1.035-.194 2.002-1.038 2.542-1.593-.731-.125-1.898-.391-2.856-.886a18.078 18.078 0 00-2.626-1.11l-.444-.14.23-.41c.044-.074.48-.77 2.127-.91 1.232-.11 2.148-.87 2.086-1.739-.072-.967-.827-2.354-.833-2.366l-.071-.129.003-.008c-.063-.063-.21-.18-.525-.344l-.436-.203c-.555-.244-1.08-.477-1.963-1.554-.484-.072-1.833-.373-1.928-1.602-.107-1.388 1.188-2.101 1.241-2.13l.182-.1.18.102c.274.15.584.307.847.433a3.453 3.453 0 00-.812-.866c-.6-.435-.946-1.08-.904-1.677.027-.378.209-.689.501-.847.37-.197.493-.4.493-.4l.047-.077.075-.051c.045-.03.445-.287.913-.287.367 0 .677.156.898.448l.167.236c-.173-.472-.271-.973-.122-1.36l.498-.511c.322-.128.627-.152.854-.134l.074.003.11-.114.075-.092.114-.03.31-.042c.2 0 .8.057 1.044.764l.105-.075.346-.083.588.227.086.056.69-.241c.223-.17.587-.09.874.22.155.165.507.642.444 1.45-.018.251-.053.535-.09.836-.095.827-.214 1.856-.041 2.405l.12.412c.238.892.644 2.38 2.494 4.562 2.056 2.426 5.332 4.166 6.326 4.586l.253.003c2.954 0 21.108-1.993 21.29-2.014l6.275-.265a4.947 4.947 0 011.387-.224c.415 0 .776.074 1.069.224.328.06 2.154.373 4.171.373 1.66 0 3.014-.206 4.022-.618 1.274-.513 2.33-.806 3.327-.916a7.95 7.95 0 01.818-.045c1.044 0 2.089.194 3.097.38.278.053.555.1.824.148 1.61.275 2.933.487 4.156.675 3.193.477 5.84.766 8.328.916.92.056 1.817.09 2.674.101l.719.006c1.73 0 3.025-.128 4.198-.42 1.205-.305 2.9-.961 4.112-2.358 1.089-1.26 1.542-2.924 1.184-4.347-.373-1.48-1.626-2.823-3.446-3.68-2.295-1.08-5.093-1.265-7.51-.483-1.197.385-2.125.946-2.746 1.665-.734.842-1.029 1.94-.772 2.859.277 1.014 1.134 1.754 2.14 2.55l.897.711-1.146-.039c-1.286-.042-2.745-.092-4.055-.614-1.14-.457-1.951-1.23-2.518-2.42-.26.247-.555.456-.827.647l-.384.28a13.534 13.534 0 01-4.044 2.113l-.149.045c-.453.155-1.3.442-2.175.442l-.51-.036-1.146-.167 1.023-.54c.645-.338 1.49-.997 1.674-1.409.203-.447.347-.892.424-1.277-.355.236-.698.516-1.056.809-.454.373-.925.758-1.435 1.056-1.555.89-3.468 1.14-5.12.657l-.994-.293.946-.415a15.454 15.454 0 002.628-1.47c.314-.222.591-.562.49-.729-.057-.092-.245-.146-.528-.152h-.102c-.71 0-1.39.152-2.11.313-.736.17-1.497.344-2.309.344l-.084-.006c-1.793-.021-4.1-.188-6.039-1.248-3.434-1.868-4.834-4.177-4.401-7.262.85-6.04 8.223-6.338 13.606-6.559 1-.039 1.946-.077 2.734-.152.743-.069 1.37-.152 2.052-.52.66-.348 1.29-.838 1.88-1.452 2.262-2.352 5.15-2.534 5.98-2.534l.188.003c.092-.009 3.41-.283 4.887-3.515l.854-1.865-.134 2.047a12.617 12.617 0 01-.585 3.133l-.036.11-.164.478.4-.298.564-.418c.435-.277.94-.56 1.354-.755.755-.355 1.435-.63 2.313-.817a7.294 7.294 0 012.51-.096c.632.09 1.267.257 1.894.501.913.361 1.88.543 2.882.543 1.617 0 2.772-.48 2.784-.486l.767-.328-.263.794c-.03.09-.775 2.172-5.391 2.742l-.373.036-.57.068c-.743.18-1.495.564-2.175 1.125l-.752.704c-.314.317-.636.642-1.018.922l-.755.493.152.03c1.033.232 2.892.84 3.718 2.303l.164.346.272.674-.707-.17c-.842-.203-1.847-.262-2.844-.167-.746.069-1.13.218-1.707.442l-.614.227c-.388.137-.773.283-1.161.432-1.462.558-2.978 1.143-4.59 1.17h-.128c-1.942 0-3.744-.788-5.487-1.549a36.362 36.362 0 00-2.032-.838c-1.951-.713-4.079-1.077-6.32-1.077-1.366 0-2.76.137-4.141.406-2.82.546-6.1 1.766-6.851 3.55-.325.773-.182 1.609.442 2.552.444.677 1.133 1.256 2.043 1.724 1.397.72 3.05 1.071 5.058 1.071.943 0 1.978-.08 3.16-.241 3.384-.457 6.752-1.346 10.017-2.205 1.217-.32 2.44-.645 3.667-.943 3.058-.752 6.872-1.692 10.482-1.692 4.339 0 7.493 1.34 9.644 4.094.573.73.955 1.354 1.202 1.954.588 1.435 1.06 3.587-.044 5.69-.442.85-.931 1.785-1.552 2.575.301.21.579.487.827.833.349.486.617 1.086.805 1.781.108.406.182.848.23 1.36l.03.255c.039.37.086.79.027 1.17l-.123.733-.66-.677-.384-.394-.492-.483c-.63-.475-1.45-.666-2.247-.857l-.743-.182c-.463-.128-.895-.247-1.313-.397l-.406-.188c-.632.233-2.808.943-6.439 1.254a9.313 9.313 0 002.617 1.548l.982.388-1.006.32c-.078.026-1.868.59-3.754.59-1.363 0-2.42-.292-3.16-.862l.11.236c.195.325.547.549 1.045.671l1.313.316-1.289.406c-.024.009-.63.2-1.495.2-.788 0-1.838-.161-2.85-.812.236.973.505 2.492.532 4.446.041 3.497.155 5.103 2.396 6.454 1 .603 1.84.973 2.646 1.158l.26.03.534.098c.23.087.528.302.665.809.191.71-.023 1.668-.304 2.244.296.15 1.015.412 2.575.492 1.725.084 2.277 1.388 2.721 2.435.373.877.63 1.42 1.215 1.525l.674.122-.462.504c-.054.06-.275.263-.75.263-.503 0-1.13-.23-1.87-.683-.367-.227-.725-.34-1.068-.34l-.663.155c.866.432 1.883 1.36 1.916 2.948.048 2.19.203 2.864.206 2.873l.2.842-.755-.427c-.03-.018-.746-.43-1.588-1.447a1.238 1.238 0 00-.83-.466c.451.534.923 1.453.789 2.921-.051.552.03.914.301 1.328l.439.663-.791-.08c-.364-.04-.734-.24-1.027-.398l-.044-.02c-.45-.248-.818-.532-1.095-.854-.418.409-.893.99-.931 1.417l-.024.41c-.045 1.115-.14 3.436-2.202 3.756l-.65.056" fill="#231f20"/><path d="M32.733 60.27c-.767-.507-1.033-.697-1.367-.915a7.85 7.85 0 01-1.253-1.012c-.409-.415-.782-.922-.89-1.504 0 0 1.096 1.271 3.068.848.69-.15 1.322.17 1.928.456-.38-.379-.836-.689-1.2-1.1-.406-.463-1.038-1.71-1.178-2.618a2.71 2.71 0 001.244 1.122c.525.254 1.086.46 1.665.531 1.277.153 3.491 1.394 3.613 2.522 0 0 1.215-.672.364-2.981 0 0 2.734.549 2.886 3.097 0 0 2.7-1.82 4.735 2.28 0 0-.182-.158-1.578-.221 0 0 1.82.585 2.793 3.924.972 3.339 2.369 5.8 4.37 5.618 0 0-.635.88-2.153.91 0 0 .698 8.045 5.95 7.406 0 0-3.005 1.976-5.616 1.307 0 0 .33 2.128-2.31 4.616 0 0-1.578 1.456-.698 3.703 0 0-1.76-.97-1.575-2.852l-3.465 6.161s-1.002 2.125-.182 3.127c0 0-1.76-.635-.91-4.553 0 0-1.146 2.402-2.852 4.917-.767 1.128-1.39 2.313-1.647 3.647l-.466-.654a7.217 7.217 0 01-.471-.904c-.275-.624-.31-1.295-.502-1.907-.119.487-.167.988-.295 1.471a8.617 8.617 0 01-.275.884l-.367.73c-.065-.495-.006-.915-.182-1.405-.203-.56-.546-1.065-.957-1.498-1.46-1.515-2.46-2.336-3.038-5.281 0 0-.57 2.148-2.432 2.596 0 0 2.662-1.581-.883-5.556l-.463-.558s-2.023-.337-2.7-3.798c-.188-1.03-.233-1.952-.018-2.966-.22.34-.513.632-.853.859-.29.185-.612.32-.946.39l-.636.078-.662-.06c1.325-.396 2.107-1.554 2.074-2.935-.06-2.483.737-3.95 1.504-4.628 0 0-2.578.889-4.261-.245 0 0 2.238.767 3.494-3.434 0 0-1.015-.11-1.6.946 0 0 .34-3.34 5.66-5.473 0 0-.64-.188-1.282-.057 0 0 1-1.396 1.847-1.659 0 0-.564-.528-1.564-.641l.77-.809a4.16 4.16 0 01.88-.57c.322-.149.71-.14 1.02-.28l-.426-.233c-.525-.146-1-.009-1.522-.015l.248-.328a3.81 3.81 0 01.922-.692c.674-.364 1.435-.507 2.196-.487.379.01.755.06 1.128.135.331.071.979.525 1.316.549" fill="#162c53" fill-rule="evenodd"/><path d="M34.992 93.836l.405 1.292.191.806c.078.376.147.73.296 1.068.116.265.256.537.423.82.293-.948.782-1.915 1.501-2.974 1.671-2.46 2.814-4.843 2.829-4.867l1.393-2.924-.686 3.166c-.286 1.312-.262 2.223-.12 2.846a6.309 6.309 0 01.502-1.659l4.35-7.746-.172 1.778c-.075.77.23 1.37.572 1.785-.158-1.785 1.015-2.892 1.075-2.948 2.44-2.3 2.202-4.201 2.19-4.282l-.078-.558.543.14c.328.08.684.123 1.056.123 1.11 0 2.22-.373 3.026-.732-4.231-.796-4.858-7.411-4.881-7.707l-.036-.403.403-.009a2.941 2.941 0 001.19-.265c-1.522-.478-2.784-2.414-3.763-5.78-.904-3.112-2.53-3.667-2.548-3.673l-2.67-.856 2.802.122c.337.015.611.036.832.06-.731-1.161-1.608-1.767-2.56-1.767-.71 0-1.226.337-1.232.337l-.546.37-.042-.659c-.09-1.495-1.203-2.217-1.94-2.533.466 2.02-.695 2.691-.752 2.721l-.495.272-.06-.561c-.092-.845-2.064-2.041-3.285-2.188-.552-.065-1.119-.247-1.784-.567l-.236-.119c.209.445.448.833.618 1.027l.656.611.525.472 1.567 1.551-2.059-.972c-.534-.257-1.104-.51-1.62-.397a3.978 3.978 0 01-2.13-.129l.143.153c.334.337.734.659 1.187.957l.445.296c.215.146.489.331.925.623l1.184.78-1.417-.093c-.263-.018-.564-.17-.877-.331l-.493-.221a6.018 6.018 0 00-1.059-.129h-.131c-.698 0-1.328.147-1.874.442l-.415.263.686.08.34.17.123.072.832.328-.817.367-.573.158-.442.123-.796.516-.197.22-.066.075c.671.221 1.053.57 1.074.588l.475.445-.62.19c-.356.11-.795.517-1.14.896.324.033.554.098.566.101l1.045.304-1.009.406c-3.017 1.209-4.365 2.823-4.962 3.918.486-.176.803-.113.803-.113l.441.05-.122.43c-.639 2.134-1.54 3.082-2.33 3.485l.644.042c1.05 0 1.96-.31 1.97-.31l1.799-.618-1.43 1.256c-.435.382-1.441 1.573-1.372 4.336.02.981-.326 1.856-.946 2.48l.53-.263c.296-.191.553-.448.744-.746l1.107-1.734-.42 2.014c-.189.89-.183 1.73.02 2.82.609 3.127 2.322 3.485 2.393 3.5l.134.027.555.665c1.448 1.62 2.09 3.092 1.895 4.35l-.045.228c.585-.672.809-1.469.812-1.477l.42-1.567.311 1.587c.51 2.596 1.337 3.447 2.587 4.733l.355.36c.48.505.83 1.054 1.038 1.633l.033.095.075-.271.15-.743.142-.722zm-1.069 5.97l-.194-1.426-.041-.528c-.018-.29-.03-.537-.126-.802a3.886 3.886 0 00-.874-1.364l-.35-.361c-1.11-1.143-1.953-2.011-2.52-4.001-.403.695-1.104 1.506-2.238 1.781l-2.417.579 2.136-1.271c.024-.012.627-.394.752-1.245.15-1.011-.447-2.303-1.725-3.735l-.393-.475c-.523-.152-2.241-.892-2.856-4.064a8.625 8.625 0 01-.164-1.954l-.134.092a3.3 3.3 0 01-1.072.45l-.707.084h-.053l-.675-.065-1.638-.263 1.588-.471c1.145-.343 1.838-1.322 1.805-2.563-.048-1.964.418-3.238.895-4.023a6.93 6.93 0 01-1.107.09c-.949 0-1.749-.215-2.381-.639l-2.366-1.596 2.7.925.295.036c.49 0 1.665-.272 2.525-2.644-.245.096-.51.287-.716.66l-.893 1.608.188-1.832c.012-.129.335-2.85 4.223-4.992l-.338.068.558-.784c.087-.12.702-.958 1.412-1.465a2.894 2.894 0 00-.863-.242l.042-.376-.19-.316.438-.478.28-.298.639-.45-.418.014h-.749l.487-.695.214-.272c.29-.298.633-.555 1.015-.763.656-.352 1.408-.529 2.232-.529h.152l.236.01-.69-.612c-.564-.57-.889-1.128-.993-1.707l-.245-1.364.904 1.054c.024.03.72.805 1.987.805l.714-.08.51-.045c-.478-.55-1.11-1.85-1.256-2.787l-.29-1.883.985 1.63c.39.638.826.85 1.086.975.588.284 1.08.442 1.549.495 1.083.132 3.01 1.048 3.697 2.179.176-.361.289-1.02-.12-2.13l-.232-.633.659.134c.955.194 2.718 1.035 3.115 2.9a3.26 3.26 0 011.14-.212c1.002 0 2.444.502 3.631 2.886l.842 1.7-1.262-1.1c.572.626 1.208 1.62 1.659 3.168.73 2.519 2.026 5.532 3.974 5.347l.827-.074-.487.668c-.03.039-.644.871-2.038 1.042.21 1.47 1.215 6.72 4.944 6.72l.538-.037 1.596-.19-1.343.88c-.095.062-2.321 1.506-4.676 1.506L50.5 80.4c-.051.826-.427 2.539-2.435 4.43-.057.054-1.376 1.323-.606 3.292l.382.973-.916-.508c-.06-.03-1.226-.692-1.638-1.975l-2.889 5.141c-.238.508-.766 2.035-.22 2.704l.868 1.056-1.286-.463c-.069-.023-1.373-.53-1.39-2.939a41.15 41.15 0 01-1.937 3.163c-.868 1.274-1.373 2.39-1.587 3.5l-.15.764-.507-.588-.501-.7a8.063 8.063 0 01-.496-.95l-.125-.334a8.558 8.558 0 01-.247.764l-.21.424-.157.313-.529 1.34" fill="#231f20"/><path d="M40.69 81.411s1.4 2.554.547 6.693c0 0 2.88-3.801.349-8.032l-.895 1.34M22.409 80.08l.435-.566.308-.663c.215-.513.34-1.062.45-1.605.066-.331.143-.618.325-.907.188-.296.424-.552.654-.809.271-.31 1.707-1.766 2.19-1.143 0 0-.239 1.063 0 1.665l-.695-.074a2.293 2.293 0 00-1.456.6 3.057 3.057 0 00-.669.886c-.182.355-.256.734-.397 1.107-.11.298-.241.587-.423.853-.197.28-.439.469-.722.656" fill="#5e85a9" fill-rule="evenodd"/><path d="M26.771 76.45s-4.944 2.55-1.754 9.004c0 0-1.612-5.275 1.993-7.367l-.239-1.638" fill="#5e85a9" fill-rule="evenodd"/><path d="M33.81 64.687s-.292-.848-.76-1.08c0 0 1.786.232 2.139.817 0 0-.06-1.348-.529-1.874 0 0 1.32.176 1.639 1.069l-.165-.788s1.19.638 1.355 1.65c0 0 1.027-.683 2.68-.25 0 0-.714.134-.997.623 0 0 1.698.355 2.426 3.034.728 2.677.4 3.387.573 4.202.173.811.095 1.304.611 2.578 0 0 .457 1.14 0 2.769 0 0 .075-.445-.334-.824l-.22-.268s.232 1.4-.287 2.029c-.522.632-1.77 2.482-1.77 2.482s-1.784 2.543-1.784 3.074c0 .534.123 2.1-.122 2.482 0 0-.439 1.071-1.33 1.785 0 0 .545-.523.136-2.071 0 0-.232 1.274-1.056 1.88-.824.602-1.086.549-1.182 1.136 0 0-.381-.45-.274-1.372.11-.916-.164-1.232-.164-1.232s-.466.7-.561 1.453c0 0-.865-.63-.675-2.071 0 0-.725.507-.575 1.936 0 0-1.644.012-1.304-3.034 0 0 .083.095-.397-1.235l-1.889-5.664s-.609 1.182-.337 2.292c0 0-.767-.657-.645-3.327 0 0-.379.814-.558 1.193 0 0 .069-1.017-.241-2.073-.31-1.057.31-2.817.31-2.817s1.11-2.605 1.152-3.226c.319-1.217.71-2.473 1.319-3.58.7-1.269 2.354-2.832 3.816-1.698" fill="#e3aa36" fill-rule="evenodd"/><path d="M34.353 85.917l.325.373c.063.074.376.492.254 1.525l-.01.465.305-.203.561-.376c.69-.504.907-1.632.91-1.644l.308-1.641.426 1.614c.087.32.132.6.153.85.217-.342.325-.605.328-.611l.033-.057c.13-.226.09-1.381.074-1.814l-.009-.468c0-.567 1.158-2.304 1.85-3.289.048-.071 1.262-1.867 1.788-2.506.334-.406.26-1.411.205-1.73l-.226-1.394.972 1.193c.04-.85-.167-1.393-.17-1.399a7.248 7.248 0 01-.525-1.996l-.104-.642c-.063-.304-.069-.585-.072-.91-.009-.635-.018-1.513-.495-3.27-.654-2.4-2.086-2.751-2.146-2.766l-.495-.116.25-.44.144-.202c-.809.024-1.286.331-1.292.331l-.483.314-.096-.567c-.05-.314-.233-.588-.442-.815l.024 2.113-.755-2.095-.578-.576c.164.567.19 1.143.196 1.241l.066 1.48-.764-1.27c-.09-.15-.432-.302-.856-.427l.158.372.412 1.191-1-.77c-.271-.212-.549-.313-.85-.313-.934 0-1.904.985-2.405 1.898-.612 1.104-.988 2.366-1.277 3.46-.078.702-.99 2.871-1.179 3.307-.152.439-.522 1.796-.295 2.566l.16.69.74-1.588-.086 1.898a9.567 9.567 0 00.033 1.453c.11-.35.227-.582.239-.603l.412-.794 2.169 6.508c.412 1.14.468 1.346.406 1.486-.135 1.31.134 1.928.385 2.217l.158.15c.056-1.206.725-1.687.755-1.707l.704-.493-.114.848c-.068.516.015.9.135 1.175.179-.46.4-.793.412-.814zm.72 4.09l-.529-.62c-.039-.045-.322-.403-.373-1.074l-.048.358-.516-.376c-.024-.02-.424-.316-.665-.937l.015.457.044.414h-.42c-.06 0-.63-.012-1.101-.543-.529-.588-.723-1.557-.58-2.87-.023-.093-.107-.361-.372-1.101l-1.525-4.574c-.05.31-.06.65.02.981l.281 1.137-.892-.758c-.071-.062-.567-.534-.737-2.005l-.725 1.567.128-2.009c0-.008.057-.963-.23-1.942-.342-1.16.29-2.972.317-3.05.43-1.002 1.107-2.715 1.134-3.12l.009-.072c.301-1.149.698-2.483 1.354-3.664.648-1.176 1.907-2.346 3.181-2.283l-1.966-.985 2.22.29c.29.039 1.011.155 1.608.406-.071-.338-.179-.666-.328-.833l-.674-.758 1.005.134c.045.006.848.117 1.435.603l.167-.283c.048.024 1.018.555 1.412 1.456.31-.12.779-.245 1.37-.245.381 0 .775.05 1.17.152l1.625.427-1.65.313-.382.135c.633.358 1.597 1.184 2.104 3.055.504 1.85.516 2.781.525 3.458.003.302.006.534.054.761l.113.695c.069.499.134.97.478 1.824.02.05.498 1.277.014 3.007l-.5-.116c-.037.424-.147.871-.413 1.196-.504.61-1.736 2.432-1.748 2.45-.803 1.143-1.686 2.563-1.719 2.874l.012.432c.036 1.015.042 1.826-.176 2.214-.08.182-.546 1.197-1.432 1.904l-.496-.564.063-.116-.498.5-.609.41c-.352.218-.382.235-.424.486l-.13.803" fill="#231f20"/><path d="M24.706 66.653l-.522-1.038c-.161-.698.113-1.438.564-1.976.537-.644 1.19-.7 1.981-.534 0 0 .597.126 1.036.537 0 0-.878.353-1.847 1.66 0 0 .713-.144 1.283.056 0 0-1.597.618-2.495 1.295" fill="#e5ae4a" fill-rule="evenodd"/><path d="M26.055 63.4c-.427 0-.743.15-1.02.481-.424.51-.606 1.128-.487 1.65l.26.594.56-.328-.334.062.58-.781c.545-.734 1.07-1.188 1.447-1.456l-.412-.147-.594-.074m-1.358 3.631c-.492 0-.88-1.319-.883-1.33-.173-.753.066-1.612.642-2.301.423-.507.945-.752 1.599-.752.227 0 .471.03.752.086.027.006.704.156 1.214.63l.436.403-.55.224c-.005 0-.506.217-1.15.895l.566.116.964.337-.952.37c-.015.003-1.558.612-2.402 1.245l-.101.077h-.135"/><path d="M42.472 65.51s2.113 1.248 2.677 2.196c0 0 .96-1.521-.227-2.822-1.185-1.298-2.292.155-2.292.155l-.158.471" fill="#e5ae4a" fill-rule="evenodd"/><path d="M42.899 65.325c.474.296 1.5.97 2.154 1.653.134-.471.185-1.19-.406-1.84-.253-.275-.513-.418-.77-.418-.519 0-.942.54-.945.543l-.033.062m2.238 3.104l-.314-.532c-.42-.71-1.978-1.733-2.542-2.067l-.122-.069-.045-.137.2-.788c.045-.06.668-.871 1.563-.871.478 0 .922.224 1.325.665 1.092 1.194.65 2.668.263 3.28l-.328.519"/><path d="M40.007 56.619s.98 2.288-.382 3.541c-1.363 1.25-1.345 2.978-1.345 2.978s.528-1.581 1.635-2.16c0 0 1.396-.89.946-2.253-.457-1.364-.854-2.106-.854-2.106" fill="#5e85a9"/><path d="M39.673 61.945s2.19-4.136 5.156-2.167c0 0-2.724-.746-5.156 2.167m-5.487-5.422s3.76 1.074 3.643 3.613c0 0 2.42-2.067 1.597-3.67 0 0 .805 1.268-.406 3.414-1.054 1.87-1.471 3.1-1.471 3.1s1.005-4.264-3.363-6.457" fill="#5e85a9"/><path d="M32.425 55.553s3.354 1.946 3.96 3.363c0 0-1.367-1.54-2.357-1.683 0 0 3.595 2.089 2.7 5.317l-.49-.298s.302-2.826-1.64-4.228c-1.937-1.405-2.173-2.47-2.173-2.47" fill="#5e85a9"/><path d="M30.587 58.131s.902.385 1.838.242c1.045-.161 2.271.328 2.519 2.34.14 1.112.14 1.429.14 1.429l-.728-.15s.448-1.966-.794-2.828c-1.241-.863-2.214-.03-2.975-1.033m-1.927 2.134s2.733-.907 4.219.964c1.581 1.987 1.638 2.139 1.638 2.139l-.797-.23s-.898-1.927-2.133-2.438c-1.23-.51-2.927-.435-2.927-.435" fill="#5e85a9"/><path d="M33.27 63.067s-.934-2.77-4.345-2.572c0 0 2.82.244 3.497 2.491l.848.08m-1.728 1.051l-.62.355s-1.516-1.038-3.88.286c0 0 1.797-1.9 4.5-.641" fill="#5e85a9"/><path d="M30.656 64.678l-.382.507s-1.381-.49-2.972-.248c0 0 1.623-1.104 3.354-.26m-.791.815s-.871-.074-2.45.4c-1.47.442-3.323 1.444-4.997 3.67 0 0 3.061-2.822 5.493-3.061 0 0-1.08.272-3.992 2.22 0 0 3.658-1.94 4.994-1.217l.952-2.012" fill="#5e85a9"/><path d="M21.394 73.406s1.28-.567 2.274-2.8c.996-2.228 4.422-2.449 4.849-1.852l-.221.698s-1.206-.749-2.957.286c-1.746 1.036-.907 2.746-3.945 3.668m17.575-10.268s3.166-3.455 5.449-1.724c2.285 1.733 2.912 4.496 2.912 4.496s.83 3.515 3.163 4.694c0 0-3.79-1.683-4.217-4.297 0 0-1.438-5.58-5.699-3.052l-.614.292h-1.364l.37-.409M40.3 81.936s1.507 6.687-1.4 11.244c-2.07 3.246-2.667 4.553-2.667 4.553s-.263-.922 1.945-5.04c2.211-4.115 1.018-9.378 1.018-9.378l1.104-1.379" fill="#5e85a9"/><path d="M38.844 85.025s.59 3.201-.388 6.123c-.982 2.915-1.79 3.192-2.143 4.783 0 0 .254-1.468 1.182-3.81.925-2.343.692-4.569.692-4.569s.707-.83.657-2.527m2.348-19.38l.427.802s1.632.55 2.476 1.26c0 0-.787-1.62-2.903-2.062m.692 1.629s2.211 1.062 2.94 2.718c0 0-.902-.838-1.296-1.125l.758.934-1.96-.993-.442-1.534m-13.722 2.542a3.09 3.09 0 00-1.009-.024c-.916.152-1.73.678-2.387 1.316l-.668.743-.44.603c-.375.432-.993.889-1.601.856 0 0 1.315.072 2.261-.68.946-.75 2.99-2.423 3.584-1.82l.295-.988-.035-.006" fill="#5e85a9" fill-rule="evenodd"/><path d="M37.686 88.104s-2.026 2.13-2.13 4.72c-.108 2.593.211 3.823.211 3.823s.051-2.763.454-3.467v1.196s1.808-4.025 1.465-6.272m-7.128-2.65c0 .666-.21 1.361-.236 2.032-.063 1.46.092 2.951.603 4.327.319.856.832 1.614 1.423 2.304.546.644 1.184 1.262 1.549 2.032 0 0-.496-2.215-1.922-3.933-1.426-1.722-.609-4.398-.609-4.398s-.808-1.454-.808-2.364m19.066-6.331s2.373.602 3.906 0c0 0-1.84.91-4.508-2.933-2.668-3.847-6.195-3.829-6.195-3.829l.32 1.32s4.272.572 5.555 4.03c1.286 3.462-1.578 6.77-1.578 6.77s3.228-2.246 2.5-5.358" fill="#5e85a9" fill-rule="evenodd"/><path d="M43.337 74.51s4.709.88 5.082 3.974c.179 1.48-.254 2.954-.82 4.303-.403.967-1.048 1.912-1.29 2.936.296-1.614.988-3.14 1.206-4.765.209-1.57-.522-2.57-1.862-3.28a8.01 8.01 0 00-2.19-.787s.352-1.432-.126-2.381" fill="#5e85a9" fill-rule="evenodd"/><path d="M44.546 77.592s3.572 1.453 1.683 5.962c0 0 .412-4.98-1.683-5.962m-16.898-5.756s-3.145 1.444-3.909 2.67c-.766 1.227-.766 3.393-.766 3.393s.725-3.231 2.339-3.998c1.614-.764 1.811-.847 1.811-.847l.525-1.218" fill="#5e85a9" fill-rule="evenodd"/><path d="M42.153 79.445l.304.86c.23.754.394 1.53.492 2.312.305 2.38-.041 4.795-1.133 6.946-.415.809-.636 1.668-.57 2.587.43-1.435.966-2.996 2.091-4.046 1.424-1.33 4.539-7.734.335-10.205 0 0 1.808 2.921 1.36 5.655-.447 2.733-1.936 4.287-1.936 4.287s3.163-5.081-.11-9.613l-.833 1.217M29.674 81.39s-1.915 1.824-1.238 4.593c.68 2.766.767 3.705.501 4.356 0 0 .737-.59.382-4.064 0 0 .609 1.963.454 2.867.2-1.16.274-2.339.12-3.52-.087-.642.083-1.382.503-1.892l-.722-2.34" fill="#5e85a9" fill-rule="evenodd"/><path d="M27.648 79.158s-1.915 2.05-1.593 4.396c.322 2.339 1.945 4.102 2.345 5.242 0 0-2.837-6.55-.209-8.295 0 0-.465-.871-.543-1.343m14.994-9.166S47.99 72.1 49.49 74.51c1.501 2.405 2.211 3.667 3.044 3.974 0 0-1.179.084-2.76-1.862-1.585-1.951-2.611-3.62-4.834-4.258l-2.226-.641-.072-1.73" fill="#5e85a9" fill-rule="evenodd"/><path d="M45.387 69.867s2.886.847 3.74 2.638l.715 1.733s-2.41-2.694-3.727-3.028l-.728-1.343" fill="#5e85a9" fill-rule="evenodd"/><path d="M37.73 74.754s2.236.699 1.761 2.662c0 0-.585 1.223-.847 1.5 0 0-1.045 5.246-2.011 5.694-.97.442-1.468-1.617-1.919-1.671-.45-.05-1.549 1.552-2.095 1.319-.546-.236-.922-.478-1.34-2.692-.42-2.22-.498-2.691-.578-2.825-.078-.132-2.041-2.343-.478-3.494 1.56-1.152 4.563.43 4.563.43l2.945-.923" fill="#f9e8b6" fill-rule="evenodd"/><path d="M31.751 88.104s-.271 2.423.54 3.68c.812 1.255 1.779 2.547 1.844 3.249l.123-.529s.925-4.848 2.058-5.928c0 0-1.444 1.497-1.602 2.557 0 0-2.921-1.507-2.963-3.029" fill="#5e85a9" fill-rule="evenodd"/><path d="M37.09 76.005s6.638-2.934 12.752-.603c0 0-4.658-1.707-12.753.603m.478.665s6.782-.815 11.541 2.545c0 0-4.747-2.721-11.541-2.545m-.352.743s6.006 1.507 8.683 5.425c0 0-2.689-3.098-8.683-5.425m-4.924-1.752s-4.977-3.422-10.82-2.372c0 0 4.712-.707 10.82 2.372m-.519.409s-3.199-1.733-8.966.588c0 0 4.457-1.549 8.966-.588m.519.537s-5.681 1.239-7.82 4.804c0 0 2.72-3.27 7.82-4.804" fill-rule="evenodd"/><path d="M31.295 78.356s2.339-1.928 3.76-1.376c1.42.55 3.09 1.97 3.09 1.97s.15 2.273-1.468 5.159c0 0-.185.456-1.268-.239-1.083-.701-1.03-.534-2.094-.036-1.066.493-1.212-1.16-1.212-1.16s-.456-1.457-.558-3.119c0 0-.343-.74-.25-1.2" fill="#231f20" fill-rule="evenodd"/><path d="M31.829 78.484s.376-.665 1.044-.767c0 0-.188 1.322 0 1.773 0 0-.218.34-1.044-1.006m5.499.29s-.445.826-1.185.826c0 0 .421-.809.421-1.36 0 0 .152-.174.764.534m-4.189 2.81l.101.752.275.797-.529.313-.334-.027.084-.734.19-.573.108-.283.105-.245m2.539 1.904s.973.642.841 0c-.131-.647-.492-1.555-.492-1.555l-.35 1.555" fill="#fff" fill-rule="evenodd"/><path d="M33.798 82.852s.997-.34 1.516.191c0 0 .292-.856.283-1.235-.012-.373.394-.424.567-.179l.266.466s.033-1.585-.752-1.952c-.782-.364-.964.173-.964.173s-.916-.641-1.486.794c0 0 .146.152.287.925.14.77.283.817.283.817" fill="#b21f2f" fill-rule="evenodd"/><path d="M33.503 70.41s1.16.215 1.575-.848c0 0 .17 1.298-1.483 1.794l-.092-.946m3.852-.114l-.615 1.486s-1.522-.695-1.566-1.211c-.045-.513.23-1.074.23-1.074s.692 1.835 1.95.8" fill="#ba7f2c" fill-rule="evenodd"/><path d="M30.223 69.66s1.048-.593 1.56-.491c.514.101 1.8.796 2.116 1.435l-.265.549.107.552c-.032.137-1.626 2.262-1.486 3.055.138.794.657-.158 1.394.427.737.582.623.89.901.985.277.09.522.176.815-.269.289-.444.766-.812 1.104-.671.34.137 1.089.185.844-.857-.245-1.044-.552-1.796-.567-2.655-.015-.86.52-1.268.72-1.364.2-.09 1.533-.832 1.915-.79.385.038 1.632.823 1.632.823l-.39.215s-.55-.37-.842-.14c0 0-.23.922-.857 1.074-.63.152-1.011.116-1.474-.308 0 0-.397.475-.182 1.275.215.8.615 2.208.508 2.515-.105.304-.6.504-1.093.549-.489.048-1.017.367-1.175.537-.158.17-.92.806-1.764-.364l-.966-.143c-.162-.057-1.078-.58-.946-1.22.131-.642 1.465-2.743 1.465-2.743l.039-.68.083-.263s-.477.648-1.158.58c-.68-.072-1.17-.762-1.08-1.606l-.456.19-.502-.196" fill="#231f20" fill-rule="evenodd"/><path d="M31.599 69.673l.448.155s-.296.477.122.734c.418.254.543-.34.543-.34l.325.298s-.376.648-1.041.355c-.66-.29-.397-1.202-.397-1.202m6.087 1.143l.248-.212s.388.447.668.349c.278-.099.35-.463.278-.728h.417s.11.6-.325.886c-.439.284-1.044.233-1.286-.295" fill="#e0bd2d" fill-rule="evenodd"/><path d="M32.42 74.238s3.76-.301 4.795.576l.134.057s-.021.635-.827.382c-.698-.224-1.014.656-1.23.817-.214.167-.667.42-.978-.065-.31-.487-.722-1.006-1.05-1.006a3.665 3.665 0 00-.683.087s-.412.05-.332-.532l.084-.349.087.033" fill="#b96367" fill-rule="evenodd"/><path d="M31.599 69.673l.448.155-.099.394h-.403l.054-.55m6.087 1.144l.248-.212.364.295-.272.287-.34-.37" fill="#fff" fill-rule="evenodd"/><path d="M33.738 71.705s.433-.466.976 0c0 0-.606.042-1.34.576l.364-.576" fill="#ba7f2c" fill-rule="evenodd"/><path d="M30.396 67.295s1.415-2.886 3.119-1.734c0 0-2.173.23-3.119 1.734m1.651 1.951s1.33.507 1.74 1.185l.927-.334-1.03-.11s-.87-.842-1.637-.74" fill="#efc283" fill-rule="evenodd"/><path d="M31.447 63.368l-1.05-.594 1.247.12s-2.02-1.976-4.139-.138c0 0 1.966-.083 3.942.612m8.907.289l1.477.475s1.7-.907 2.625-.358c0 0-1.041-1.749-4.102-.117" fill="#5e85a9"/><path d="M71.976 88.8s.731 5.558 3.059 8.142c0 0-2.128-5.09-1.928-6.337l-1.13-1.806M92.583 66.76s7.271 1.886 6.382 8c0 0 2.575-7.19-6.382-8" fill="#efc283" fill-rule="evenodd"/><path d="M14.32 66.99s.644.526 1.25.072c0 0 .438-1.886-1.698-2.065 0 0 1 1.253.447 1.993" fill="#85b3da" fill-rule="evenodd"/><path d="M14.657 66.904l.376.092.31-.08c.024-.206.05-.701-.236-1.09-.158-.22-.397-.375-.707-.474.233.42.463 1.033.257 1.552m.376.594c-.48 0-.854-.299-.872-.31l-.188-.153.147-.197c.423-.564-.436-1.67-.445-1.683l-.367-.453.585.044c.746.066 1.292.332 1.623.788.501.687.31 1.549.301 1.588l-.02.092-.075.05-.69.234"/><path d="M11.67 66.796s.644.185 1.056-.301c0 0 .203-.934-1.725-1.373 0 0 .74.854.669 1.674" fill="#85b3da" fill-rule="evenodd"/><path d="M11.923 66.576l.561-.194c-.009-.203-.205-.546-.88-.82.152.286.299.644.32 1.014m.032.504l-.355-.045-.197-.057.018-.205c.05-.588-.424-1.275-.609-1.492l-.504-.58.75.174c2.145.49 1.924 1.623 1.915 1.668l-.012.065-.042.045a1.23 1.23 0 01-.964.427"/><path d="M8.403 69.02s1.056-.081.996-.899c0 0-1.217-1.387-2.08-.57 0 0 .967.606 1.084 1.468" fill="#85b3da" fill-rule="evenodd"/><path d="M7.764 67.57c.28.235.674.644.83 1.16.22-.06.53-.197.554-.51-.262-.269-.913-.794-1.384-.65m.42 1.718l-.032-.236c-.08-.611-.725-1.14-.964-1.289l-.277-.173.238-.224c.227-.218.496-.325.797-.325.83 0 1.608.874 1.641.913l.054.06.006.09c.062.838-.773 1.13-1.227 1.163l-.235.02"/><path d="M8.307 71.767s-.075.633-.633 1.128c0 0-1.327-.498-1.056-2.04 0 0 .949 1.02 1.689.912" fill="#85b3da" fill-rule="evenodd"/><path d="M6.836 71.403c.06.705.54 1.06.785 1.191l.36-.585c-.426-.074-.847-.36-1.145-.606m.89 1.785l-.141-.054c-.528-.197-1.46-.937-1.217-2.321l.086-.496.346.37c.215.233.892.839 1.39.839l.078-.006.322-.05-.035.327c-.003.03-.093.731-.716 1.29l-.114.1"/><path d="M25.754 115.95s1.647-.923 1.41.996c0 0-1.303.468-1.539 1.143 0 0-.555-.612.129-2.14" fill="#85b3da" fill-rule="evenodd"/><path d="M25.948 116.137c-.287.669-.308 1.128-.263 1.415.376-.394.96-.666 1.244-.782.024-.328-.018-.57-.122-.686l-.28-.105-.58.158m-.223 2.43l-.284-.311c-.065-.078-.644-.779.084-2.408l.036-.075.071-.042c.018-.008.457-.253.895-.253.272 0 .499.092.657.274.224.254.301.657.23 1.224l-.018.155-.147.054c-.459.164-1.24.581-1.384.987l-.14.394" fill="#231f20"/><path d="M28.725 118.3s.081-1.429-1.259-1.047c0 0-.844.875-.143 2.125 0 0 .436-1.12 1.402-1.077" fill="#85b3da" fill-rule="evenodd"/><path d="M27.604 117.477a1.5 1.5 0 00-.251 1.334c.22-.308.582-.669 1.107-.746l-.194-.48c-.14-.15-.361-.18-.662-.108m-.242 2.489l-.26-.463c-.626-1.119-.155-2.074.182-2.423l.045-.048.066-.017c.525-.153.958-.072 1.235.226.373.394.35 1.006.346 1.075l-.015.244-.247-.009c-.791 0-1.155.91-1.158.92l-.194.495" fill="#231f20"/><path d="M31.16 118.742s.08-1.43-1.259-1.047c0 0-.844.874-.143 2.124 0 0 .439-1.119 1.402-1.077" fill="#85b3da" fill-rule="evenodd"/><path d="M30.041 117.919a1.492 1.492 0 00-.25 1.33c.22-.307.582-.665 1.107-.746l-.194-.48c-.14-.146-.361-.179-.663-.104m-.241 2.485l-.26-.462c-.627-1.12-.155-2.074.182-2.42l.045-.05.066-.019c.525-.152.954-.071 1.235.227.373.394.349 1.008.343 1.074l-.012.248-.248-.012h-.003c-.787 0-1.151.91-1.154.919l-.194.495" fill="#231f20"/><path d="M32.312 118.038s.904-.63 1.596.397c0 0-1.005.665-1.24 1.504 0 0-.783-.102-.356-1.901" fill="#85b3da" fill-rule="evenodd"/><path d="M32.533 118.2c-.161.727-.093 1.103-.01 1.294l.028.05c.26-.524.725-.942 1-1.16l-.603-.29-.415.105m.316 2.014l-.215-.027c-.03-.006-.283-.044-.477-.325-.266-.385-.295-1.017-.09-1.883l.024-.095.078-.054c.033-.024.352-.236.779-.236.319 0 .778.123 1.166.699l.14.209-.208.14c-.01.006-.931.63-1.137 1.363l-.06.21" fill="#231f20"/><path d="M76.187 116.471s1.73.12.868 1.161c0 0-1.247.069-1.623.8 0 0-.534-.666.755-1.96" fill="#85b3da" fill-rule="evenodd"/><path d="M76.28 116.737c-.478.501-.645.88-.69 1.137.45-.35 1.074-.454 1.33-.483l.111-.332c-.072-.17-.454-.286-.752-.322m-.806 2.157l-.241-.304c-.027-.036-.657-.853.776-2.295l.08-.083.113.009c.177.012 1.063.101 1.292.638.12.278.036.591-.247.934l-.069.084-.11.006c-.308.018-1.16.17-1.415.668l-.179.343" fill="#231f20"/><path d="M77.863 117.214s1.122-.104 1.206.914c0 0-1.29.435-1.489 1.005 0 0-.45-.534.283-1.919" fill="#85b3da" fill-rule="evenodd"/><path d="M78.019 117.465c-.251.507-.32.871-.323 1.113.338-.292.818-.507 1.09-.615-.12-.396-.499-.486-.767-.498m-.35 2.163l-.28-.337c-.057-.065-.537-.701.254-2.193l.062-.12.135-.011.113-.003c.615 0 1.298.298 1.367 1.143l.015.194-.185.065c-.487.164-1.224.537-1.334.848l-.146.414" fill="#231f20"/><path d="M80.31 117.805s1.23-.65 1.322.782c0 0-1.062.107-1.51 1.062 0 0-.617-.033.188-1.844" fill="#85b3da" fill-rule="evenodd"/><path d="M80.501 117.996c-.247.576-.331.928-.352 1.137a2.279 2.279 0 011.206-.746c-.093-.474-.355-.474-.466-.474l-.388.083m-.227 1.919l-.167-.012-.358-.233c-.212-.349-.104-.987.329-1.966l.035-.078.078-.039c.036-.017.343-.176.698-.176.278 0 .925.114.994 1.161l.018.242-.242.02c-.039.007-.931.111-1.313.923l-.072.158" fill="#231f20"/><path d="M83.139 117.972s1.367-.874 1.519.46c0 0-.848.379-1.03 1.217 0 0-.707-.056-.49-1.677" fill="#85b3da" fill-rule="evenodd"/><path d="M83.375 118.13c-.069.618.018.955.125 1.125.22-.504.642-.814.88-.954-.086-.358-.29-.358-.39-.358l-.615.188m.456 1.79l-.22-.018-.472-.284c-.269-.334-.352-.9-.248-1.676l.015-.114.099-.066c.05-.035.516-.319.984-.319.302 0 .824.126.92.961l.02.182-.167.075c-.006.006-.737.343-.886 1.041l-.045.218m-41.714-54.36c.883.43 1.722.958 2.506 1.564l.576.48.275.257.265.271.254.293.233.31.212.346.167.385.403.928-.905-.55a21.39 21.39 0 00-1.554-.861l-.797-.35-.385-.116-.173-.027-.113.003.131-.585c.388.361.746.731 1.101 1.116.355.391.683.794 1.003 1.209l.444.65.203.337.188.353.164.36.126.38.077.387-.006.391-.08-.376-.14-.352-.183-.328-.205-.32a12.45 12.45 0 00-.964-1.175 24.324 24.324 0 00-1.063-1.089 24.041 24.041 0 00-1.118-1.03l-.54-.47.67-.114.335-.03.278.036.486.131c.307.11.594.239.871.373a18.23 18.23 0 011.608.934l-.504.382-.11-.293-.158-.289-.191-.283-.212-.278a10.985 10.985 0 00-.97-1.044 33.257 33.257 0 00-2.205-1.916m-4.1 49.708l-.719-.22c2.486-8.021 7.227-14.505 7.275-14.568l.605.445c-.047.065-4.711 6.45-7.16 14.343m28.596-42.702l-.137-.635 20.95-4.542.137.636-20.95 4.541" fill="#231f20"/><path d="M31.835 118.56l-.048-.203.054-.555.37-.71.31-.328.364-.278.77-.39.69-.263c.41-.14.71-.182.71-.182s-.204.224-.55.483l-.606.424-.689.427-.611.462-.448.496c-.233.325-.316.617-.316.617"/><path d="M143.866 30.155l-9.772-15.14v15.14h-4.816V5.487h4.297l9.772 15.108V5.487h4.816v24.668h-4.297m18.333-17.393l-3.121 8.975h6.135zm5.75 17.396l-1.456-4.369h-8.767l-1.489 4.369h-5.025l8.976-24.67h3.774l9.009 24.67h-5.022m22.662-.003l-9.772-15.14v15.14h-4.816V5.487h4.297l9.772 15.108V5.487h4.816v24.668h-4.297m19.476-10.115v10.118h-4.783V20.04l-7.415-14.553h5.233l4.607 9.945 4.539-9.945h5.234l-7.415 14.553m17.288-7.278l-3.118 8.975h6.135zm5.753 17.396l-1.456-4.369h-8.767l-1.489 4.369h-5.024l8.975-24.67h3.778l9.008 24.67h-5.025m22.662-.003l-9.772-15.14v15.14h-4.816V5.487h4.297l9.772 15.108V5.487h4.816v24.668h-4.297m25.262-2.596c-1.976 2.044-4.333 2.805-6.965 2.805-2.703 0-4.92-.97-6.65-2.704-2.498-2.494-2.43-5.58-2.43-9.84 0-4.258-.068-7.347 2.43-9.841 1.73-1.734 3.878-2.7 6.65-2.7 5.717 0 8.627 3.741 9.286 7.9h-4.849c-.558-2.324-1.978-3.604-4.437-3.604-1.316 0-2.393.516-3.082 1.316-.937 1.038-1.182 2.184-1.182 6.929 0 4.747.245 5.928 1.182 6.964.69.8 1.766 1.283 3.082 1.283 1.453 0 2.632-.52 3.432-1.388.796-.9 1.107-2.008 1.107-3.288v-.937h-4.539v-4.022h9.322v3.605c0 3.571-.624 5.717-2.357 7.522M138.701 42.436V62.81h-4.816V42.436h-6.442v-4.293h17.703v4.293h-6.445m10.363 20.377v-24.67h16.25v4.296H153.88v5.786h9.736v4.297h-9.736v5.991h11.434v4.3h-16.25m29.212.206c-2.7 0-4.92-.97-6.654-2.7-2.495-2.495-2.423-5.58-2.423-9.841 0-4.264-.072-7.346 2.423-9.841 1.734-1.734 3.954-2.703 6.654-2.703 4.607 0 8.211 2.634 9.077 7.796h-4.885c-.483-1.975-1.733-3.503-4.156-3.503-1.32 0-2.393.487-3.086 1.283-.937 1.042-1.211 2.22-1.211 6.968 0 4.747.274 5.923 1.211 6.961.693.8 1.767 1.283 3.086 1.283 2.423 0 3.673-1.522 4.156-3.497h4.885c-.866 5.162-4.503 7.794-9.077 7.794m26.404-.206V52.486h-8.352v10.327h-4.816v-24.67h4.816v10.082h8.352V38.143h4.816v24.67h-4.816m25.157 0l-9.77-15.14v15.14h-4.818v-24.67h4.296l9.773 15.107V38.143h4.816v24.67h-4.297m21.415-19.267c-.692-.796-1.767-1.316-3.082-1.316-1.32 0-2.426.52-3.119 1.316-.937 1.045-1.178 2.187-1.178 6.929 0 4.75.241 5.893 1.178 6.934.693.794 1.8 1.313 3.119 1.313 1.315 0 2.39-.52 3.082-1.313.937-1.041 1.214-2.184 1.214-6.934 0-4.742-.277-5.884-1.214-6.929m3.569 16.772c-1.731 1.731-3.847 2.7-6.651 2.7-2.808 0-4.954-.969-6.69-2.7-2.492-2.494-2.423-5.576-2.423-9.843 0-4.258-.069-7.343 2.423-9.838 1.736-1.734 3.882-2.703 6.69-2.703 2.804 0 4.92.97 6.65 2.703 2.498 2.495 2.462 5.58 2.462 9.838 0 4.267.036 7.349-2.461 9.843m7.385 2.495v-24.67h4.815v20.37h11.193v4.3h-16.008m30.384-19.267c-.695-.796-1.766-1.316-3.085-1.316-1.316 0-2.423.52-3.118 1.316-.934 1.045-1.176 2.187-1.176 6.929 0 4.75.242 5.893 1.176 6.934.695.794 1.802 1.313 3.118 1.313 1.319 0 2.39-.52 3.085-1.313.934-1.041 1.212-2.184 1.212-6.934 0-4.742-.278-5.884-1.212-6.929m3.569 16.772c-1.734 1.731-3.846 2.7-6.654 2.7-2.805 0-4.953-.969-6.687-2.7-2.495-2.494-2.426-5.576-2.426-9.843 0-4.258-.069-7.343 2.426-9.838 1.734-1.734 3.882-2.703 6.687-2.703 2.808 0 4.92.97 6.654 2.703 2.494 2.495 2.458 5.58 2.458 9.838 0 4.267.036 7.349-2.458 9.843m22.593-.104c-1.975 2.044-4.332 2.805-6.967 2.805-2.7 0-4.917-.97-6.65-2.7-2.495-2.495-2.427-5.58-2.427-9.844 0-4.258-.068-7.343 2.426-9.838 1.734-1.734 3.88-2.703 6.651-2.703 5.717 0 8.63 3.741 9.286 7.9h-4.849c-.555-2.324-1.975-3.604-4.437-3.604-1.313 0-2.39.52-3.082 1.316-.937 1.042-1.179 2.187-1.179 6.929 0 4.75.242 5.929 1.179 6.967.692.797 1.77 1.283 3.082 1.283 1.456 0 2.635-.522 3.432-1.387.796-.902 1.107-2.009 1.107-3.289v-.94h-4.539V49.09h9.322v3.605c0 3.568-.624 5.72-2.355 7.519m7.245 2.599h4.813v-24.67h-4.813zm18.813.206c-2.703 0-4.92-.97-6.654-2.7-2.494-2.495-2.425-5.58-2.425-9.841 0-4.264-.07-7.346 2.425-9.841 1.734-1.734 3.951-2.703 6.654-2.703 4.607 0 8.212 2.634 9.077 7.796h-4.884c-.484-1.975-1.73-3.503-4.157-3.503-1.319 0-2.393.487-3.085 1.283-.937 1.042-1.212 2.22-1.212 6.968 0 4.747.275 5.923 1.212 6.961.692.8 1.766 1.283 3.085 1.283 2.426 0 3.673-1.522 4.157-3.497h4.884c-.865 5.162-4.502 7.794-9.077 7.794m21.174-17.602l-3.121 8.976h6.134zm5.75 17.396l-1.456-4.365h-8.764l-1.492 4.365h-5.025l8.976-24.67h3.777l9.008 24.67h-5.024m8.074 0v-24.67h4.816v20.37h11.192v4.3h-16.008M137.976 95.674c-5.06 0-9.08-3.431-9.08-8.662V70.795h4.816v16.044c0 2.838 1.665 4.538 4.264 4.538s4.294-1.7 4.294-4.538V70.795h4.783v16.217c0 5.23-4.02 8.662-9.077 8.662m29.036-.209l-9.77-15.14v15.14h-4.815V70.798h4.294l9.772 15.104V70.798h4.816v24.667h-4.297m10.052 0h4.816V70.796h-4.816zm19.542 0H193l-8.14-24.667h4.99l4.952 16.077 4.957-16.077h5.024l-8.178 24.667m11.16 0V70.798h16.25v4.293h-11.434v5.786h9.736v4.3h-9.736v5.994h11.434v4.294h-16.25m30.319-20.374h-4.538v6.517h4.538c2.116 0 3.5-1.351 3.5-3.258s-1.384-3.259-3.5-3.259m3.745 20.374l-4.819-9.84h-3.464v9.84h-4.816V70.798h9.667c5.022 0 8.003 3.428 8.003 7.552 0 3.467-2.112 5.615-4.503 6.48l5.509 10.635h-5.577m16.354.209c-3.741 0-6.582-.797-9.008-3.258l3.118-3.118c1.558 1.56 3.673 2.08 5.962 2.08 2.84 0 4.362-1.078 4.362-3.05 0-.865-.241-1.594-.76-2.08-.487-.447-1.042-.692-2.182-.865l-2.98-.415c-2.116-.313-3.674-.973-4.784-2.044-1.175-1.179-1.766-2.775-1.766-4.849 0-4.404 3.258-7.49 8.593-7.49 3.393 0 5.858.833 7.97 2.88l-3.05 3.014c-1.56-1.492-3.43-1.698-5.06-1.698-2.563 0-3.81 1.42-3.81 3.118 0 .624.209 1.283.728 1.767.483.45 1.283.83 2.285.97l2.913.417c2.252.31 3.673.934 4.711 1.904 1.316 1.247 1.907 3.05 1.907 5.234 0 4.78-3.987 7.483-9.149 7.483m13.687-.209h4.816V70.796h-4.816zm19.995-20.374v20.374h-4.816V75.091h-6.445v-4.293h17.706v4.293h-6.445m19.785 10.256v10.118h-4.78V85.347l-7.414-14.552h5.23l4.61 9.945 4.54-9.945h5.23l-7.415 14.552" fill="#001e61"/><path d="M126.402 106.69h192.025v-2.237H126.402zm7.916 29.529c-3.065 0-5.392-.654-7.38-2.668l2.555-2.557c1.277 1.28 3.01 1.704 4.882 1.704 2.33 0 3.577-.88 3.577-2.498 0-.71-.197-1.307-.623-1.704-.4-.367-.85-.564-1.788-.71l-2.444-.337c-1.73-.257-3.007-.797-3.914-1.677-.967-.964-1.45-2.27-1.45-3.974 0-3.605 2.67-6.132 7.041-6.132 2.781 0 4.798.68 6.53 2.357l-2.501 2.47c-1.275-1.223-2.808-1.39-4.142-1.39-2.1 0-3.124 1.161-3.124 2.551 0 .514.17 1.054.597 1.448.397.373 1.05.683 1.874.796l2.384.34c1.844.254 3.01.767 3.86 1.561 1.078 1.026 1.561 2.5 1.561 4.288 0 3.918-3.264 6.132-7.495 6.132m16.325-.168h3.944v-20.21h-3.944zm25.717 0l-8.002-12.406v12.406h-3.948v-20.21h3.52l8.007 12.375v-12.374h3.944v20.21h-3.52m25.807-2.131c-1.62 1.677-3.551 2.298-5.706 2.298-2.217 0-4.034-.794-5.451-2.214-2.044-2.041-1.987-4.569-1.987-8.06 0-3.494-.057-6.018 1.987-8.065 1.417-1.417 3.178-2.211 5.451-2.211 4.682 0 7.066 3.064 7.606 6.472h-3.974c-.454-1.9-1.617-2.954-3.632-2.954-1.08 0-1.96.426-2.527 1.08-.767.85-.967 1.787-.967 5.678 0 3.888.2 4.852.967 5.705.567.654 1.447 1.05 2.527 1.05 1.191 0 2.155-.426 2.808-1.136.654-.737.91-1.647.91-2.695v-.766h-3.718v-3.295h7.633v2.954c0 2.922-.51 4.682-1.927 6.159m17.542-12.123l-2.555 7.352h5.025zm4.711 14.25l-1.19-3.577h-7.183l-1.22 3.578h-4.118l7.353-20.21h3.094l7.382 20.21h-4.118m19.362-16.689h-3.69v5.532h3.69c1.79 0 2.921-1.107 2.921-2.751 0-1.647-1.13-2.781-2.92-2.781m.196 9.083h-3.888v7.608h-3.944V115.84h7.832c4.175 0 6.672 2.867 6.672 6.302 0 3.434-2.497 6.302-6.672 6.302m24.414-8.177c-.564-.654-1.444-1.077-2.524-1.077s-1.988.423-2.554 1.077c-.767.85-.967 1.79-.967 5.678s.2 4.828.967 5.678c.566.65 1.474 1.078 2.554 1.078 1.08 0 1.96-.427 2.524-1.078.77-.85.997-1.79.997-5.678s-.227-4.828-.997-5.678m2.924 13.738c-1.417 1.42-3.15 2.217-5.448 2.217-2.3 0-4.061-.797-5.479-2.217-2.044-2.041-1.987-4.569-1.987-8.06 0-3.494-.057-6.018 1.987-8.062 1.418-1.42 3.178-2.214 5.479-2.214 2.297 0 4.03.794 5.448 2.214 2.047 2.044 2.017 4.568 2.017 8.062 0 3.491.03 6.019-2.017 8.06m18.822-14.645h-3.718v5.332h3.718c1.731 0 2.868-1.104 2.868-2.665 0-1.563-1.137-2.667-2.868-2.667m3.068 16.691l-3.948-8.062h-2.838v8.062h-3.944V115.84h7.919c4.115 0 6.555 2.81 6.555 6.188 0 2.841-1.73 4.599-3.69 5.309l4.517 8.715h-4.571m12.944-.001v-20.21h13.314v3.519h-9.367v4.738h7.976v3.521H310.1v4.912h9.367v3.52h-13.314" fill="#e01932"/></svg>